<?xml version="1.0" encoding="UTF-8" standalone="no"?>
<svg
   xmlns:dc="http://purl.org/dc/elements/1.1/"
   xmlns:cc="http://creativecommons.org/ns#"
   xmlns:rdf="http://www.w3.org/1999/02/22-rdf-syntax-ns#"
   xmlns:svg="http://www.w3.org/2000/svg"
   xmlns="http://www.w3.org/2000/svg"
   xmlns:xlink="http://www.w3.org/1999/xlink"
   xmlns:sodipodi="http://sodipodi.sourceforge.net/DTD/sodipodi-0.dtd"
   xmlns:inkscape="http://www.inkscape.org/namespaces/inkscape"
   class="motif"
   aria-labelledby="brand-motif"
   role="img"
   viewBox="0 0 443.59018 443.59018"
   version="1.1"
   id="svg1097"
   sodipodi:docname="CIA logo 2021.svg"
   width="443.59018"
   height="443.59018"
   inkscape:version="1.0.1 (3bc2e813f5, 2020-09-07)">
  <metadata
     id="metadata1101">
    <rdf:RDF>
      <cc:Work
         rdf:about="">
        <dc:format>image/svg+xml</dc:format>
        <dc:type
           rdf:resource="http://purl.org/dc/dcmitype/StillImage" />
        <dc:title>Brand Motif</dc:title>
      </cc:Work>
    </rdf:RDF>
  </metadata>
  <sodipodi:namedview
     pagecolor="#ffffff"
     bordercolor="#666666"
     borderopacity="1"
     objecttolerance="10"
     gridtolerance="10"
     guidetolerance="10"
     inkscape:pageopacity="0"
     inkscape:pageshadow="2"
     inkscape:window-width="1366"
     inkscape:window-height="705"
     id="namedview1099"
     showgrid="false"
     inkscape:zoom="0.21173478"
     inkscape:cx="890.06669"
     inkscape:cy="1212.567"
     inkscape:window-x="-8"
     inkscape:window-y="-8"
     inkscape:window-maximized="1"
     inkscape:current-layer="svg1097"
     inkscape:pagecheckerboard="true" />
  <title
     id="brand-motif">Brand Motif</title>
  <defs
     id="defs835">
    <circle
       id="path-1"
       cx="222.5"
       cy="222.5"
       r="222.5" />
    <mask
       id="mask-2"
       fill="#ffffff">
      <use
         xlink:href="#path-1"
         id="use837"
         x="0"
         y="0"
         width="100%"
         height="100%" />
    </mask>
    <clipPath
       clipPathUnits="userSpaceOnUse"
       id="clipPath3294">
      <circle
         style="opacity:0.996375;fill:#171719;fill-opacity:1;stroke:#000000;stroke-width:2;stroke-opacity:1"
         id="circle3296"
         cx="110"
         cy="35"
         r="220.79509" />
    </clipPath>
  </defs>
  <g
     id="Mask"
     style="fill:#000000;fill-rule:evenodd;stroke:none;stroke-width:1"
     transform="translate(-1.2049103,-1.2049103)" />
  <g
     id="g3422"
     transform="translate(111.79509,186.79509)">
    <circle
       style="opacity:0.996375;fill:#171719;fill-opacity:1;stroke:#171719;stroke-width:2;stroke-opacity:1"
       id="path2413"
       cx="110"
       cy="35"
       r="220.79509" />
    <g
       id="g3292"
       clip-path="url(#clipPath3294)">
      <path
         d="m -234,-90 99.08128,0.99755 c 4.80495,0.11718 9.59589,0.57216 14.33786,1.36162 l 133.1486,24.35255 c 3.91624,0.72814 10.1251,0.0255 13.78098,-1.52908 l 52.66857,-22.35383 c 3.66311,-1.55457 9.90451,-2.54848 13.86414,-2.18441 l 103.64119,9.46579 c 3.97772,0.36407 10.45778,0.70629 14.4355,0.76454 L 332,-77.30492"
         id="path841"
         style="opacity:0.32;fill:none;fill-rule:evenodd;stroke:#ffffff;stroke-width:0.5;stroke-opacity:1" />
      <path
         d="m -235,-82.89474 59.25443,2.34809 c 3.98336,0.16042 10.5016,0.28804 14.48498,0.28439 h 25.06987 c 4.81731,0.0677 9.62484,0.45744 14.39083,1.16676 l 133.66014,21.85839 c 3.92905,0.64536 10.16121,-0.0729 13.84764,-1.59335 l 53.06934,-21.90215 c 3.68642,-1.52042 9.95118,-2.51581 13.92368,-2.21318 l 18.64941,1.43292 c 3.98337,0.30627 10.46178,0.91517 14.4198,1.3527 l 70.52012,7.83548 c 3.96164,0.44118 10.45815,0.92611 14.4379,1.0756 l 13.63036,0.52504 c 3.98337,0.14949 10.50161,0.28804 14.48498,0.30263 L 332,-70.08598"
         id="path843"
         style="opacity:0.32;fill:none;fill-rule:evenodd;stroke:#ffffff;stroke-width:0.5;stroke-opacity:1" />
      <path
         d="m -235,-75.21397 58.779,4.00789 c 3.98208,0.27123 10.49819,0.45682 14.48027,0.41399 l 25.12687,-0.2641 c 4.81663,0.0115 9.62768,0.32377 14.40424,0.93505 l 133.94243,18.93307 c 3.94225,0.56032 10.1941,-0.17488 13.89381,-1.62743 L 79.0081,-73.77927 c 3.67075,-1.4347 9.93708,-2.42685 13.91915,-2.18417 l 18.6904,1.13848 c 3.98207,0.24269 10.45475,0.85654 14.40424,1.36333 l 70.26909,9.01506 c 3.9495,0.50679 10.42941,1.11707 14.40424,1.35619 l 13.55353,0.81728 c 3.98207,0.24268 10.49819,0.41042 14.48026,0.38187 L 332,-62.60501"
         id="path845"
         style="opacity:0.32;fill:none;fill-rule:evenodd;stroke:#ffffff;stroke-width:0.5;stroke-opacity:1" />
      <path
         d="m -235,-69.48242 58.31076,5.80568 c 3.95903,0.39552 10.45851,0.64952 14.43926,0.56606 l 25.18006,-0.5334 c 4.81635,-0.0408 9.63082,0.20758 14.41755,0.74386 l 134.22729,16.75303 c 3.94818,0.48985 10.21967,-0.28303 13.93263,-1.72357 l 53.69308,-20.83152 c 3.71296,-1.45142 10.00616,-2.46379 13.97967,-2.2751 l 18.73124,0.89625 c 3.98076,0.18868 10.44767,0.82731 14.38499,1.41876 l 70.0214,10.54095 c 3.93732,0.59145 10.40423,1.34982 14.37051,1.68728 l 13.47665,1.13936 c 3.98075,0.33746 10.46937,0.54791 14.45012,0.47172 L 332,-56.63734"
         id="path847"
         style="opacity:0.32;fill:none;fill-rule:evenodd;stroke:#ffffff;stroke-width:0.5;stroke-opacity:1" />
      <path
         d="m -235,-61.73977 57.8313,7.67549 c 4.78228,0.56646 9.59625,0.80697 14.40989,0.71992 l 25.23811,-0.80853 c 4.81557,-0.0949 9.63255,0.0875 14.42798,0.5464 l 134.49711,14.49445 c 3.95793,0.42457 10.24213,-0.39504 13.96852,-1.82381 l 54.01447,-20.70054 c 3.72276,-1.42877 10.02506,-2.48835 14.00469,-2.35175 l 18.77301,0.6387 c 4.81217,0.21703 9.60857,0.71006 14.36648,1.47676 l 69.79552,12.10947 c 3.92537,0.67931 10.37237,1.59491 14.32668,2.03055 l 13.41498,1.47677 c 4.79364,0.46865 9.60962,0.65725 14.42436,0.56486 L 332,-48.6261"
         id="path849"
         style="opacity:0.32;fill:none;fill-rule:evenodd;stroke:#ffffff;stroke-width:0.5;stroke-opacity:1" />
      <path
         d="m -235,-54.0904 57.39332,9.21837 c 4.75773,0.68027 9.56412,0.96365 14.36913,0.84721 l 25.31686,-1.0491 c 4.81371,-0.14727 9.63188,-0.0402 14.43422,0.32086 l 134.76526,11.66987 c 3.97836,0.36052 10.26418,-0.48669 14.00023,-1.84584 l 54.32997,-19.73819 c 3.73967,-1.35554 10.0508,-2.40464 14.02916,-2.32893 l 18.80681,0.36052 c 4.81254,0.15901 9.60798,0.65413 14.35104,1.48171 l 69.54903,13.19485 c 3.90965,0.74266 10.3329,1.77374 14.27871,2.28927 l 13.35645,1.7521 c 4.77816,0.55197 9.58969,0.76401 14.39806,0.63451 L 332,-41.21641"
         id="path851"
         style="opacity:0.32;fill:none;fill-rule:evenodd;stroke:#ffffff;stroke-width:0.5;stroke-opacity:1" />
      <path
         d="m -235,-46.31696 56.94477,11.13279 c 4.72857,0.82016 9.52632,1.15687 14.32116,1.00506 l 25.36302,-1.33153 c 3.9771,-0.20908 10.48507,-0.15773 14.43324,0.11738 l 135.07662,9.34274 c 3.97709,0.27511 10.28259,-0.60157 14.03191,-1.94411 l 54.6489,-19.59518 c 3.74932,-1.3462 10.0729,-2.4283 14.05,-2.41019 l 18.86951,0.0956 c 4.80302,0.11149 9.58852,0.62927 14.30669,1.54795 l 69.31716,14.8156 c 3.89393,0.83267 10.29344,2.01747 14.22354,2.63739 l 13.30519,2.0945 c 4.75977,0.66231 9.56689,0.90776 14.36816,0.73363 L 332,-33.14102"
         id="path853"
         style="opacity:0.32;fill:none;fill-rule:evenodd;stroke:#ffffff;stroke-width:0.5;stroke-opacity:1" />
      <path
         d="m -236,-39.42647 56.61099,12.87405 c 4.70406,0.94836 9.50184,1.33457 14.29487,1.15071 l 25.46861,-1.5978 c 3.98287,-0.25286 10.48218,-0.29318 14.46142,-0.0916 l 135.60931,6.80533 c 3.98287,0.20156 10.31562,-0.70362 14.08486,-2.01192 l 55.05768,-19.08569 c 3.76924,-1.30463 10.10924,-2.40404 14.0921,-2.44069 L 112.63828,-44 c 4.80319,0.0544 9.58965,0.58341 14.29124,1.57948 l 69.21857,16.19059 c 3.88149,0.90885 10.26131,2.2318 14.18262,2.93176 l 13.28829,2.40769 c 4.74635,0.75853 9.55587,1.03353 14.35642,0.8209 L 332,-26.23726"
         id="path855"
         style="opacity:0.32;fill:none;fill-rule:evenodd;stroke:#ffffff;stroke-width:0.5;stroke-opacity:1" />
      <path
         d="m -236,-31.46729 56.16803,14.52699 c 3.85481,0.99734 10.25778,1.57609 14.22841,1.28854 l 25.53224,-1.85273 c 3.98149,-0.29119 10.47495,-0.42587 14.45644,-0.29847 l 135.91013,4.2478 c 3.98149,0.1274 10.33017,-0.80442 14.1162,-2.06384 l 55.37897,-18.47633 c 4.58703,-1.40024 9.32816,-2.22666 14.11621,-2.4606 L 112.92008,-37 c 4.79727,-4.8e-4 9.57951,0.53917 14.25737,1.60885 l 68.99568,17.47171 c 3.85843,0.97914 10.21072,2.43148 14.1162,3.22862 l 13.25476,2.70812 c 4.72069,0.84885 9.52275,1.1493 14.31166,0.89542 L 332,-18.28708"
         id="path857"
         style="opacity:0.32;fill:none;fill-rule:evenodd;stroke:#ffffff;stroke-width:0.5;stroke-opacity:1" />
      <path
         d="m -236,-24.48461 55.72459,16.17751 c 3.82473,1.10745 10.19687,1.74804 14.16273,1.42231 l 25.59712,-2.10995 c 3.98033,-0.32572 10.47188,-0.55011 14.45221,-0.49944 l 136.243,1.72633 c 3.98033,0.0507 10.338,-0.90117 14.11207,-2.12081 L 80.01631,-27.7744 c 4.59525,-1.35768 9.32943,-2.19056 14.11207,-2.48272 l 19.07301,-0.72383 c 3.98032,-0.14838 10.37418,0.5863 14.217,1.63223 l 68.78007,18.73985 c 3.84282,1.04593 10.16069,2.62387 14.0397,3.50694 l 13.22916,3.00749 c 3.88263,0.88307 10.30181,1.32098 14.26766,0.97717 L 332,-11.35079"
         id="path859"
         style="opacity:0.32;fill:none;fill-rule:evenodd;stroke:#ffffff;stroke-width:0.5;stroke-opacity:1" />
      <path
         d="m -236,-17.54239 55.31979,17.82988 c 3.78734,1.22108 10.12852,1.91987 14.08587,1.55607 l 25.66494,-2.36291 c 3.97906,-0.3602 10.46131,-0.68078 14.44037,-0.70239 L 10.04338,-1.98897 c 4.78564,-0.14128 9.53576,-0.86711 14.14375,-2.16119 l 56.03241,-17.32201 c 4.61087,-1.32422 9.34712,-2.16919 14.1329,-2.5214 l 19.13566,-0.97253 c 3.97906,-0.20532 10.34917,0.5439 14.16907,1.65691 l 68.57368,20.0235 c 3.81628,1.11302 10.09957,2.81676 13.95565,3.7857 l 13.21048,3.31024 c 3.85968,0.96893 10.25512,1.4408 14.21609,1.05538 L 332,-4.3951"
         id="path861"
         style="opacity:0.32;fill:none;fill-rule:evenodd;stroke:#ffffff;stroke-width:0.5;stroke-opacity:1" />
      <path
         d="m -236,-10.57207 54.9044,19.47127 c 3.74636,1.32653 10.04935,2.08301 14.00545,1.68147 l 25.73271,-2.61362 c 3.95609,-0.40513 10.44713,-0.81026 14.42493,-0.90347 L 9.91805,3.83689 C 14.70624,3.6165 19.4547,2.86734 24.07538,1.6033 l 56.3581,-16.76443 c 4.62455,-1.2741 9.35967,-2.11435 14.14287,-2.50965 l 19.19828,-1.27992 c 3.97779,-0.25455 10.32418,0.50193 14.10308,1.68505 l 68.37827,21.31048 c 3.79337,1.18312 10.03489,3.00799 13.87166,4.05846 l 13.19542,3.61747 c 3.83315,1.05047 10.20485,1.55598 14.16095,1.12576 L 332,2.56055"
         id="path863"
         style="opacity:0.32;fill:none;fill-rule:evenodd;stroke:#ffffff;stroke-width:0.5;stroke-opacity:1" />
      <path
         d="m -236,-3.36049 54.49651,21.75192 c 3.70178,1.47172 9.96662,2.31795 13.91784,1.8654 l 25.80044,-2.94343 c 3.95122,-0.45255 10.43658,-0.96397 14.40949,-1.13322 L 9.79641,10.31541 C 14.58388,10.01062 19.32968,9.22182 23.9637,7.96067 L 80.64729,-8.75432 c 4.63704,-1.27735 9.37128,-2.15611 14.15283,-2.627 l 19.26447,-1.54898 c 3.97652,-0.31642 10.29197,0.47463 14.06244,1.76237 l 68.17215,23.24939 c 3.76686,1.28407 9.97024,3.29296 13.77686,4.45929 l 13.19123,4.04722 c 3.80662,1.16633 10.15099,1.7219 14.0986,1.23623 L 332,10.18663"
         id="path865"
         style="opacity:0.32;fill:none;fill-rule:evenodd;stroke:#ffffff;stroke-width:0.5;stroke-opacity:1" />
      <path
         d="m -237,4.62634 54.18737,23.41609 c 3.66004,1.58059 9.89043,2.47333 13.8437,1.98305 l 25.91712,-3.21239 c 3.95328,-0.49028 10.4407,-1.09763 14.4157,-1.32813 L 9.10219,17.10638 c 4.7948,-0.38159 9.54712,-1.1884 14.20211,-2.41112 l 57.10888,-16.1315 c 4.65622,-1.23754 9.39741,-2.12176 14.184,-2.64529 l 19.36815,-1.82938 c 3.98224,-0.36588 10.27779,0.42808 14.02833,1.77816 l 68.10348,24.55397 c 3.75054,1.35009 9.91577,3.47949 13.70251,4.72347 l 13.21741,4.35393 c 3.78312,1.24764 10.11126,1.82938 14.06091,1.3135 L 332,18.14913"
         id="path867"
         style="opacity:0.32;fill:none;fill-rule:evenodd;stroke:#ffffff;stroke-width:0.5;stroke-opacity:1" />
      <path
         d="m -237,12.58248 53.7898,25.05422 c 3.61904,1.68291 9.79674,2.63 13.75235,2.10182 l 25.98833,-3.46781 c 3.94837,-0.52455 10.42284,-1.20937 14.39292,-1.52264 L 8.99341,23.90023 c 4.79045,-0.45248 9.53932,-1.27449 14.20473,-2.4588 L 80.63593,5.86541 C 85.30235,4.66783 90.04124,3.77714 94.82257,3.19899 l 19.44149,-2.08725 c 3.95923,-0.42255 10.2455,0.38976 13.96949,1.82133 l 67.90406,25.81554 c 3.72399,1.41335 9.84379,3.66087 13.60035,4.9868 l 13.22035,4.67354 c 3.75657,1.32592 10.0537,1.94882 13.99483,1.38056 L 332,26.10404"
         id="path869"
         style="opacity:0.32;fill:none;fill-rule:evenodd;stroke:#ffffff;stroke-width:0.5;stroke-opacity:1" />
      <path
         d="m -237,20.35991 53.3961,26.30146 c 3.55998,1.75843 9.69588,2.73772 13.63574,2.18374 l 26.04864,-3.67055 c 3.93985,-0.55398 10.40498,-1.31525 14.36655,-1.69053 L 8.84852,30.36726 c 4.78531,-0.5192 9.5312,-1.34657 14.20736,-2.47682 L 80.84045,13.10101 c 4.67538,-1.14109 9.41119,-2.02524 14.18566,-2.64837 L 114.5445,8.13308 c 3.95071,-0.4682 10.206,0.33953 13.90346,1.78703 l 67.73008,26.73391 c 3.69746,1.45821 9.76824,3.78492 13.49103,5.16808 l 13.23777,4.92147 c 3.72279,1.38316 9.98894,2.02649 13.92156,1.42962 L 332,33.68398"
         id="path871"
         style="opacity:0.32;fill:none;fill-rule:evenodd;stroke:#ffffff;stroke-width:0.5;stroke-opacity:1" />
      <path
         d="m -237,25.39324 53.00627,28.13453 c 3.50819,1.8601 9.59509,2.89947 13.52643,2.30452 l 26.13785,-3.94242 c 3.93135,-0.59136 10.38353,-1.4336 14.33658,-1.88877 L 8.74712,34.36045 C 13.52553,33.76742 18.26796,32.91796 22.9535,31.8158 L 81.05569,17.45106 c 3.85901,-0.95335 10.24247,-2.15041 14.18467,-2.68801 l 19.60248,-2.60558 c 3.9422,-0.52326 10.16653,0.30106 13.83386,1.82785 l 67.54176,28.1847 c 3.66732,1.52679 9.6855,3.98184 13.38177,5.45129 l 13.25518,5.27567 c 3.69264,1.46945 9.92421,2.15041 13.84832,1.50529 L 332,38.80822"
         id="path873"
         style="opacity:0.32;fill:none;fill-rule:evenodd;stroke:#ffffff;stroke-width:0.5;stroke-opacity:1" />
      <path
         d="m -237,34.12051 52.61769,29.33229 c 3.45289,1.9243 9.48731,2.99022 13.41385,2.37107 l 26.20941,-4.14057 c 3.92654,-0.61916 10.3659,-1.54085 14.31051,-2.04391 L 8.63601,41.84583 c 3.94461,-0.50306 10.33336,-1.65342 14.20204,-2.55752 L 81.2877,25.65995 c 3.86506,-0.90059 10.2502,-2.11075 14.18396,-2.66657 l 19.67243,-2.81433 c 3.93376,-0.56638 10.12365,0.25681 13.76455,1.82228 l 67.35485,29.02975 c 3.63728,1.56547 9.60662,4.09132 13.26198,5.62865 l 13.28007,5.51959 c 3.65536,1.51974 9.85248,2.21628 13.77178,1.54436 L 332,47.36894"
         id="path875"
         style="opacity:0.32;fill:none;fill-rule:evenodd;stroke:#ffffff;stroke-width:0.5;stroke-opacity:1" />
      <path
         d="m -237,40.78288 52.23987,32.44192 c 3.39037,2.10571 9.37231,3.27065 13.29039,2.57242 l 26.29162,-4.58259 c 3.91808,-0.6872 10.34099,-1.73455 14.27353,-2.33355 L 8.52703,47.74311 c 3.93253,-0.599 10.31929,-1.83744 14.194,-2.73411 L 81.49224,31.26491 c 3.87471,-0.90402 10.25424,-2.17186 14.17955,-2.81496 l 19.75305,-3.23758 c 3.92531,-0.6431 10.08798,0.22417 13.69521,1.92932 l 67.1893,31.74369 c 3.61447,1.70147 9.5205,4.46131 13.1422,6.12971 l 13.30484,6.12972 c 3.61447,1.6684 9.78436,2.42543 13.6916,1.6831 L 332,54.65191"
         id="path877"
         style="opacity:0.32;fill:none;fill-rule:evenodd;stroke:#ffffff;stroke-width:0.5;stroke-opacity:1" />
      <path
         d="m -238,48.8309 51.95409,34.27038 c 3.33739,2.20648 9.27738,3.41269 13.19394,2.68823 l 26.42408,-4.88368 c 3.91655,-0.7355 10.33435,-1.8608 14.26176,-2.52643 L 7.86702,54.66705 c 3.92742,-0.66562 10.32349,-1.92331 14.21109,-2.79488 L 81.28615,38.6112 c 3.8876,-0.86788 10.28005,-2.15132 14.20023,-2.84636 l 19.87236,-3.5267 c 3.92379,-0.69504 10.06286,0.18388 13.64278,1.95274 l 67.12079,33.20759 c 3.57992,1.77254 9.44751,4.652 13.03105,6.3988 l 13.36769,6.49442 c 3.59078,1.7468 9.72262,2.53378 13.62831,1.7468 L 332,62.75382"
         id="path879"
         style="opacity:0.32;fill:none;fill-rule:evenodd;stroke:#ffffff;stroke-width:0.5;stroke-opacity:1" />
      <path
         d="m -238,55.55108 51.57672,35.48832 c 3.28212,2.2569 9.16244,3.49023 13.07059,2.74155 l 26.49219,-5.06356 c 3.90815,-0.7523 10.30955,-1.95309 14.22494,-2.67645 L 7.76833,60.1987 c 3.91539,-0.72336 10.30594,-1.98202 14.19961,-2.80304 L 81.51656,44.84165 c 3.89367,-0.82102 10.2806,-2.09776 14.19237,-2.83198 l 19.96051,-3.75427 c 3.91177,-0.72336 10.01283,0.14106 13.55911,1.94586 l 66.94516,34.07414 c 3.5499,1.80841 9.35785,4.75251 12.91137,6.54646 l 13.38903,6.76708 c 3.55352,1.80841 9.64734,2.59327 13.54463,1.77948 L 332,69.32758"
         id="path881"
         style="opacity:0.32;fill:none;fill-rule:evenodd;stroke:#ffffff;stroke-width:0.5;stroke-opacity:1" />
      <path
         d="m -238,63.62442 51.20157,37.30902 c 3.21592,2.34721 9.04366,3.62223 12.93966,2.83259 L 115.94342,45.28866 c 3.89962,-0.78965 9.9661,0.0978 13.48228,1.96687 l 93.0122,49.50509 c 3.51256,1.86908 9.56819,2.69857 13.45335,1.84372 L 332,77.45049"
         id="path883"
         style="opacity:0.32;fill:none;fill-rule:evenodd;stroke:#ffffff;stroke-width:0.5;stroke-opacity:1" />
      <path
         d="m -238,63.62442 51.20157,37.30902 c 3.21592,2.34721 9.04366,3.62223 12.93966,2.83259 L 115.94342,45.28866 c 3.89962,-0.78965 9.9661,0.0978 13.48228,1.96687 l 93.0122,49.50509 c 3.51256,1.86908 9.56819,2.69857 13.45335,1.84372 L 332,77.45049"
         id="path885"
         style="opacity:0.32;fill:none;fill-rule:evenodd;stroke:#ffffff;stroke-width:0.5;stroke-opacity:1" />
      <path
         d="m -238,69.8614 51.4367,34.3656 c 3.31722,2.21808 9.2173,3.33811 13.10607,2.48894 l 29.17122,-6.37241 c 3.88877,-0.84916 10.2736,-2.15585 14.18046,-2.90254 l 47.22236,-9.01507 c 3.91047,-0.73203 10.31338,-1.9582 14.22386,-2.69024 L 94.57868,55.13642 c 3.91409,-0.73204 10.29168,-2.04972 14.17684,-2.92816 l 8.15376,-1.8301 c 3.88515,-0.87479 10.0059,-0.17935 13.60166,1.5446 l 73.81794,35.42707 c 3.59214,1.72395 9.40541,4.70701 12.89264,6.62862 l 6.01584,3.29418 c 3.49447,1.9216 9.56096,2.92815 13.47867,2.19612 L 332,82.21823"
         id="path887"
         style="opacity:0.32;fill:none;fill-rule:evenodd;stroke:#ffffff;stroke-width:0.5;stroke-opacity:1" />
      <path
         d="m -238,75.78463 51.66987,30.79628 c 3.42199,2.0383 9.40505,2.97571 13.27558,2.07827 l 29.11224,-6.72896 c 3.87777,-0.89744 10.25873,-2.18001 14.17629,-2.88852 l 47.38696,-8.3785 c 3.91756,-0.69034 10.3347,-1.81668 14.2595,-2.47068 L 95.62951,60.39739 c 3.92118,-0.6649 10.29491,-1.98744 14.16183,-2.93211 l 8.08834,-1.98018 c 3.86692,-0.9483 10.03446,-0.46506 13.70604,1.09001 l 73.4317,30.74541 c 3.6752,1.54054 9.52442,4.38545 13.00428,6.32203 l 6.01923,3.35358 c 3.47987,1.93657 9.54974,3.08108 13.49262,2.54334 L 332,86.50301"
         id="path889"
         style="opacity:0.32;fill:none;fill-rule:evenodd;stroke:#ffffff;stroke-width:0.5;stroke-opacity:1" />
      <path
         d="m -238,83.1112 51.91651,27.79185 c 3.5197,1.88338 9.56433,2.63968 13.42768,1.68146 l 29.06196,-7.22881 c 3.86697,-0.95822 10.24078,-2.27622 14.16924,-2.93706 l 47.57205,-7.85661 c 3.92484,-0.65349 10.36376,-1.6888 14.29223,-2.29457 L 96.66831,66.78487 c 3.93208,-0.61311 10.29866,-1.95682 14.14392,-2.99213 l 8.03057,-2.1624 c 3.84526,-1.03531 10.05629,-0.7673 13.80027,0.59842 l 73.07089,26.65008 c 4.50305,1.71933 8.88124,3.75828 13.10212,6.10172 l 6.02292,3.46205 c 3.46183,1.98985 9.53539,3.30418 13.49641,2.93705 L 332,92.3262"
         id="path891"
         style="opacity:0.32;fill:none;fill-rule:evenodd;stroke:#ffffff;stroke-width:0.5;stroke-opacity:1" />
      <path
         d="m -238,89.49564 52.17599,24.73982 c 3.61755,1.71361 9.72037,2.27739 13.57307,1.25368 l 29.01278,-7.70384 c 3.8527,-1.02372 10.22321,-2.35529 14.15911,-2.96729 l 47.75172,-7.37744 c 3.9359,-0.6083 10.37877,-1.55783 14.3219,-2.11049 L 97.73439,72.21114 c 4.75773,-0.72963 9.46888,-1.74897 14.10847,-3.0526 l 7.98032,-2.34787 c 3.82376,-1.11274 10.07128,-1.07935 13.88056,0.0964 l 72.71285,22.4958 c 4.56839,1.51716 8.98498,3.4783 13.1896,5.8567 l 6.02685,3.57559 c 3.44391,2.04001 9.51417,3.5385 13.48986,3.3382 L 332,97.18093"
         id="path893"
         style="opacity:0.32;fill:none;fill-rule:evenodd;stroke:#ffffff;stroke-width:0.5;stroke-opacity:1" />
      <path
         d="m -238,96.91385 52.45321,20.72588 c 3.69705,1.46043 9.86482,1.79414 13.70295,0.76072 l 28.96502,-7.85833 c 4.66075,-1.20746 9.38352,-2.16572 14.1479,-2.87062 l 47.91691,-6.5809 c 3.94304,-0.54183 10.40021,-1.37072 14.35048,-1.84437 L 98.77855,79.42458 c 4.77069,-0.64584 9.48639,-1.64254 14.10811,-2.98185 l 7.92948,-2.42927 c 3.80195,-1.16619 10.07463,-1.35278 13.9417,-0.41982 l 72.3999,17.51796 c 4.62213,1.24223 9.07432,3.03886 13.258,5.35012 l 6.02308,3.5524 c 3.42573,2.00585 9.48499,3.61698 13.46419,3.58827 L 332,102.78427"
         id="path895"
         style="opacity:0.32;fill:none;fill-rule:evenodd;stroke:#ffffff;stroke-width:0.5;stroke-opacity:1" />
      <path
         d="m -238,103.30775 52.72814,17.64957 c 3.77301,1.2643 9.98781,1.39795 13.81147,0.29621 l 28.9397,-8.30823 c 4.64319,-1.26407 9.36283,-2.22933 14.12981,-2.88982 l 48.11226,-6.03972 c 3.95027,-0.49489 10.41829,-1.23902 14.3758,-1.65443 L 99.83485,84.94295 c 4.76781,-0.58973 9.47346,-1.60277 14.06108,-3.02709 l 7.88969,-2.61167 c 3.77663,-1.24985 10.0674,-1.6761 13.98149,-0.95003 l 72.12136,13.39431 c 3.91409,0.72246 9.90099,2.99819 13.31226,5.05718 l 6.03755,3.61228 c 3.40765,2.04816 9.45243,3.83985 13.42802,3.9735 L 332,107.59913"
         id="path897"
         style="opacity:0.32;fill:none;fill-rule:evenodd;stroke:#ffffff;stroke-width:0.5;stroke-opacity:1" />
      <path
         d="m -238,109.10841 53.03133,14.17271 c 3.83808,1.02753 10.09621,0.94249 13.90535,-0.18424 l 28.87784,-8.56386 c 4.62381,-1.28847 9.33964,-2.23597 14.10793,-2.83455 l 48.29613,-5.36082 c 3.95384,-0.43936 10.43263,-1.08422 14.39732,-1.41728 L 100.87962,90.39334 c 4.76837,-0.52017 9.46857,-1.52475 14.02472,-2.99753 l 7.86427,-2.76722 c 3.75126,-1.30035 10.04918,-1.95938 13.99578,-1.46333 l 71.88169,9.00321 c 3.94661,0.49251 9.95152,2.56527 13.34104,4.60614 l 6.04832,3.6353 c 3.38952,2.04087 9.40528,3.96481 13.38444,4.27307 L 332,111.76934"
         id="path899"
         style="opacity:0.32;fill:none;fill-rule:evenodd;stroke:#ffffff;stroke-width:0.5;stroke-opacity:1" />
      <path
         d="m -238,117.19525 53.35758,11.34102 c 3.89239,0.82877 10.17954,0.51617 13.97426,-0.69427 l 28.83841,-9.20004 c 4.61102,-1.37877 9.33091,-2.35893 14.1081,-2.92977 l 48.47401,-4.92535 c 3.9575,-0.39984 10.44361,-0.97053 14.41197,-1.26496 L 101.94745,97.16307 c 4.76784,-0.4688 9.46284,-1.5085 13.98511,-3.09697 l 7.82457,-2.95885 c 3.72237,-1.41035 10.01676,-2.33726 13.98512,-2.05737 l 71.69811,5.01622 c 3.97921,0.27626 9.97696,2.23913 13.34844,4.36193 l 6.05201,3.80942 c 3.3751,2.12281 9.362,4.26379 13.31227,4.76178 L 332,118.35843"
         id="path901"
         style="opacity:0.32;fill:none;fill-rule:evenodd;stroke:#ffffff;stroke-width:0.5;stroke-opacity:1" />
      <path
         d="m -238,123.6237 53.70485,8.13495 c 3.93218,0.59507 10.24104,0.0508 14.01767,-1.20464 l 28.80586,-9.60083 c 4.58628,-1.42602 9.29859,-2.40658 14.07193,-2.92815 l 48.67296,-4.35412 c 3.97921,-0.36284 10.45809,-0.83091 14.43006,-1.06313 l 167.30404,-9.75323 c 3.97921,-0.23222 10.24465,-1.6328 13.9417,-3.1132 l 7.79563,-3.12771 c 3.69343,-1.4804 9.97335,-2.65601 13.95256,-2.61247 l 71.55341,0.80551 c 3.97921,0.0472 9.97696,1.83962 13.33397,3.99128 l 6.05925,3.8788 c 3.35339,2.14803 9.30773,4.45934 13.22906,5.13423 L 332,123.17015"
         id="path903"
         style="opacity:0.32;fill:none;fill-rule:evenodd;stroke:#ffffff;stroke-width:0.5;stroke-opacity:1" />
      <path
         d="m -238,131.03486 54.07574,4.8769 c 3.96099,0.35754 10.2805,-0.40403 14.03892,-1.69476 l 28.76515,-9.86463 c 4.56576,-1.4543 9.27582,-2.4216 14.04979,-2.88538 l 48.86313,-3.71488 c 3.97908,-0.30034 10.46499,-0.68649 14.44046,-0.85453 l 167.84494,-7.07222 c 3.97909,-0.16805 10.22625,-1.55889 13.89062,-3.09275 l 7.77368,-3.25008 c 3.66438,-1.53386 9.91515,-2.93901 13.887,-3.12493 l 71.46071,-3.34303 c 3.97909,-0.18593 9.95494,1.43017 13.29014,3.57543 l 6.06991,3.90081 c 3.33519,2.14526 9.24232,4.58728 13.13097,5.42751 L 332,129.04334"
         id="path905"
         style="opacity:0.32;fill:none;fill-rule:evenodd;stroke:#ffffff;stroke-width:0.5;stroke-opacity:1" />
      <path
         d="m -238,136.22275 54.47141,1.76645 c 3.97918,0.12669 10.29523,-0.87599 14.03567,-2.22978 l 28.73332,-10.41048 c 4.54317,-1.52226 9.24902,-2.50632 14.0212,-2.93202 l 49.05972,-3.17454 c 3.97918,-0.257 10.49057,-0.55745 14.46976,-0.66604 l 168.35565,-4.5935 c 3.97918,-0.10859 10.20118,-1.52392 13.83671,-3.1492 l 7.7594,-3.47137 c 3.61744,-1.62527 9.84306,-3.29761 13.79692,-3.71751 l 71.40103,-7.57257 c 3.95748,-0.41989 9.90817,1.03526 13.22536,3.23608 l 6.08092,4.03243 c 3.31719,2.20083 9.17382,4.83964 13.02278,5.86404 L 332,132.61021"
         id="path907"
         style="opacity:0.32;fill:none;fill-rule:evenodd;stroke:#ffffff;stroke-width:0.5;stroke-opacity:1" />
      <path
         d="m -238,143 54.89326,-1.37992 c 3.97908,-0.10261 10.27688,-1.30561 14.00275,-2.67846 l 28.70004,-10.58291 c 3.72587,-1.37285 10.02005,-2.66431 13.99552,-2.86953 l 49.25381,-2.54046 c 3.97908,-0.20522 10.49031,-0.41398 14.46939,-0.45998 l 168.88313,-1.97788 c 3.97908,-0.046 10.17922,-1.44007 13.77848,-3.09951 l 7.74836,-3.56656 c 4.38245,-1.89858 8.97432,-3.29601 13.68443,-4.16452 L 212.8337,98.16325 c 3.92483,-0.63335 9.83557,0.63335 13.13098,2.80937 l 6.09161,4.023 c 4.03416,2.52696 8.36372,4.57135 12.89585,6.08933 L 332,137.91907"
         id="path909"
         style="opacity:0.32;fill:none;fill-rule:evenodd;stroke:#ffffff;stroke-width:0.5;stroke-opacity:1" />
      <path
         d="m -238,150 55.34648,-4.69558 c 4.76269,-0.53019 9.44511,-1.6475 13.94514,-3.32758 l 28.67527,-11.48754 c 3.70423,-1.47892 9.98768,-2.83214 13.96322,-2.99851 l 49.44648,-2.05201 c 3.97915,-0.16638 10.4905,-0.29209 14.46966,-0.281 l 169.42172,0.56199 c 3.97916,0 10.15048,-1.45304 13.71725,-3.25733 l 7.74127,-3.91914 c 4.3447,-2.08635 8.88154,-3.72616 13.54361,-4.89524 l 71.46569,-16.3495 c 3.88511,-0.88735 9.7417,0.26991 13.0227,2.58812 l 6.09897,4.28518 c 4.01048,2.69268 8.28687,4.94688 12.75862,6.7254 L 332,143.08234"
         id="path911"
         style="opacity:0.32;fill:none;fill-rule:evenodd;stroke:#ffffff;stroke-width:0.5;stroke-opacity:1" />
      <path
         d="m -238,157 55.81859,-7.82114 c 4.73862,-0.76728 9.38602,-2.02232 13.86873,-3.74528 l 28.6418,-11.71172 c 3.68603,-1.50756 9.95482,-2.83348 13.93385,-2.94973 l 49.65109,-1.45306 c 3.97903,-0.11625 10.49018,-0.15258 14.46921,-0.0799 l 169.9517,3.13136 c 3.97904,0.0763 10.12845,-1.37315 13.6517,-3.21491 l 7.73741,-4.03953 c 4.30362,-2.15245 8.78094,-3.93519 13.38402,-5.32913 L 214.66195,99.444 c 3.83073,-1.0898 9.62926,-0.10172 12.88845,2.1796 l 6.10962,4.29745 c 3.98595,2.6937 8.20647,5.01962 12.60992,6.94929 L 332,148.57584"
         id="path913"
         style="opacity:0.32;fill:none;fill-rule:evenodd;stroke:#ffffff;stroke-width:0.5;stroke-opacity:1" />
      <path
         d="m -238,164 56.29424,-11.23091 c 4.7007,-1.02762 9.30677,-2.46381 13.76789,-4.29287 l 28.61739,-12.34291 c 3.66806,-1.5812 9.92257,-2.93334 13.89811,-3.00353 l 49.85524,-0.88296 c 3.97916,-0.0702 10.49051,-0.0185 14.46967,0.11822 l 170.48162,5.81126 c 3.97916,0.13669 10.08898,-1.34476 13.5834,-3.288 l 7.75936,-4.30395 c 4.25977,-2.28201 8.6705,-4.25716 13.19996,-5.911 l 71.67911,-25.05527 c 3.76573,-1.3152 9.49572,-0.4618 12.73693,1.89891 l 6.12067,4.45542 c 3.95987,2.78998 8.12232,5.26748 12.45115,7.41092 L 332,153.85524"
         id="path915"
         style="opacity:0.32;fill:none;fill-rule:evenodd;stroke:#ffffff;stroke-width:0.5;stroke-opacity:1" />
      <path
         d="m -238,171 56.79309,-14.0995 c 4.65031,-1.22414 9.2095,-2.76616 13.64481,-4.61497 l 28.59911,-12.4034 c 3.64272,-1.58136 9.88272,-2.89377 13.86186,-2.91887 l 50.06473,-0.2797 c 3.97913,-0.0251 10.49044,0.11475 14.46957,0.3048 l 171.03401,8.19004 c 3.97913,0.19005 10.05635,-1.25145 13.51096,-3.20573 l 7.74484,-4.37472 c 4.21227,-2.31195 8.55145,-4.38899 12.9973,-6.22142 l 71.83421,-28.6042 c 3.69336,-1.4702 9.34734,-0.77813 12.57044,1.53832 l 6.14234,4.42492 c 3.93292,2.75252 8.0345,5.26026 12.28105,7.50874 L 332,159.57912"
         id="path917"
         style="opacity:0.32;fill:none;fill-rule:evenodd;stroke:#ffffff;stroke-width:0.5;stroke-opacity:1" />
      <path
         d="m -238,177 57.3205,-17.10093 c 4.59109,-1.42694 9.10111,-3.09289 13.51079,-4.99072 l 28.57705,-12.66985 c 3.61735,-1.60808 9.84642,-2.90446 13.82551,-2.88321 l 50.28113,0.29045 c 3.97909,0.0248 10.49031,0.2444 14.4694,0.4888 l 171.56358,10.61192 c 3.97908,0.24795 10.01643,-1.18303 13.43483,-3.18782 l 7.75198,-4.51964 c 3.41839,-1.99416 9.17359,-4.95884 12.7837,-6.59172 l 72.01779,-32.51584 c 3.61734,-1.62934 9.18806,-1.06261 12.38941,1.24325 l 6.1495,4.44525 c 3.20135,2.31649 8.64546,5.78768 12.10364,7.71809 L 332,164.15659"
         id="path919"
         style="opacity:0.32;fill:none;fill-rule:evenodd;stroke:#ffffff;stroke-width:0.5;stroke-opacity:1" />
      <path
         d="m -238,183 57.85372,-20.83749 c 3.74766,-1.34893 9.76708,-3.83954 13.36282,-5.53752 l 28.55607,-13.45293 c 3.61744,-1.69798 9.80688,-3.02873 13.78606,-2.95964 l 50.47052,0.89807 c 3.97919,0.0691 10.49058,0.38177 14.44806,0.69083 l 172.14311,13.48565 c 3.97918,0.30905 9.9769,-1.1635 13.35559,-3.27234 l 7.76302,-4.86487 c 3.38231,-2.10883 9.0436,-5.34844 12.56337,-7.19913 L 218.51368,102.137 c 3.53062,-1.84706 9.01827,-1.3962 12.198,1.00715 l 6.14965,4.65398 c 3.18335,2.40335 8.54439,6.10109 11.93755,8.22083 L 332,168.20905"
         id="path921"
         style="opacity:0.32;fill:none;fill-rule:evenodd;stroke:#ffffff;stroke-width:0.5;stroke-opacity:1" />
      <path
         d="m -238,189 58.3967,-23.85843 c 3.68258,-1.50216 9.62245,-4.13992 13.20736,-5.86129 l 28.53455,-13.71707 c 3.58128,-1.72137 9.76715,-3.03666 13.74635,-2.92166 l 50.68428,1.43747 c 3.9792,0.1114 10.49064,0.50311 14.43367,0.86967 l 172.69768,15.89125 c 3.97921,0.35936 9.93717,-1.07811 13.27609,-3.23432 l 7.77754,-5.0024 c 3.34254,-2.1562 8.88811,-5.53426 12.32831,-7.51797 l 72.42161,-41.79448 c 3.44021,-1.98371 8.84108,-1.64231 12.00274,0.75826 l 6.17501,4.67179 c 3.15805,2.40057 8.43954,6.18112 11.73143,8.40202 L 332,172.80689"
         id="path923"
         style="opacity:0.32;fill:none;fill-rule:evenodd;stroke:#ffffff;stroke-width:0.5;stroke-opacity:1" />
      <path
         d="m -238,198 58.96464,-27.43657 c 3.61747,-1.68209 9.47414,-4.51585 13.02287,-6.30329 l 28.52008,-14.29957 c 3.55958,-1.78745 9.72374,-3.11713 13.69933,-2.95728 l 50.89047,2.05629 c 3.9792,0.15985 10.46893,0.63941 14.42282,1.06447 l 173.25476,18.6592 c 3.95751,0.42506 9.89377,-1.05358 13.19289,-3.26972 l 7.79202,-5.27878 c 3.30274,-2.23431 8.73979,-5.81283 12.09317,-7.99265 l 72.64228,-46.7715 c 3.34977,-2.15438 8.68191,-1.91461 11.80378,0.54132 l 6.18586,4.83191 c 3.13996,2.45229 8.32016,6.39412 11.54332,8.75922 L 332,180.04924"
         id="path925"
         style="opacity:0.32;fill:none;fill-rule:evenodd;stroke:#ffffff;stroke-width:0.5;stroke-opacity:1" />
      <path
         d="m -238,204 100.86933,-52.14701 c 3.53788,-1.81571 9.68395,-3.15933 13.65593,-2.95234 l 51.10751,2.65456 c 3.97921,0.20699 10.45808,0.76986 14.40835,1.25284 l 173.81186,21.2401 c 3.95027,0.48298 9.85035,-0.99864 13.10607,-3.29369 l 92.53108,-65.12929 c 3.25571,-2.29142 8.47933,-2.14253 11.6012,0.33772 L 332,184.48118"
         id="path927"
         style="opacity:0.32;fill:none;fill-rule:evenodd;stroke:#ffffff;stroke-width:0.5;stroke-opacity:1" />
      <path
         d="m 332,274.70117 -47.97087,-10.83864 c -4.70916,-1.00328 -9.47868,-1.69662 -14.27803,-2.07556 l -139.88641,-9.0062 c -3.97918,-0.25763 -9.83581,1.47684 -13.02278,3.85358 l -85.54883,63.61306 c -3.19782,2.37673 -8.39608,2.32956 -11.55049,-0.10161 L -86.37863,238.36795 c -3.1544,-2.43116 -6.80078,-5.33767 -8.09944,-6.45891 -1.29866,-1.12124 -5.58171,-2.37674 -9.5609,-2.77951 l -38.00844,-3.99147 c -3.95748,-0.41366 -10.32779,0.13426 -14.15866,1.21559 L -238,249.50051"
         id="path935"
         style="opacity:0.32;fill:none;fill-rule:evenodd;stroke:#ffffff;stroke-width:0.5;stroke-opacity:1" />
      <path
         d="m 332,272.23759 -47.80024,-10.83125 c -4.71146,-1.00627 -9.47616,-1.73858 -14.27062,-2.19331 L 130.65947,247.88097 c -3.97913,-0.32534 -9.73079,1.4951 -12.81281,4.04299 l -82.46211,68.16783 c -3.0784,2.55885 -8.1102,2.53692 -11.18137,-0.0219 L -82.96935,230.72204 c -3.07117,-2.55886 -6.65239,-5.63314 -7.95826,-6.83214 -1.30588,-1.19901 -5.62143,-2.50036 -9.58248,-2.88785 l -39.45853,-3.88945 c -3.97914,-0.39114 -10.30596,0.2705 -14.10784,1.4622 L -238,245.08817"
         id="path937"
         style="opacity:0.32;fill:none;fill-rule:evenodd;stroke:#ffffff;stroke-width:0.5;stroke-opacity:1" />
      <path
         d="m 332,267.6982 -47.63113,-10.61479 c -4.71321,-0.99637 -9.47384,-1.75391 -14.26366,-2.2697 L 131.42616,241.39433 c -3.96113,-0.3831 -9.62246,1.47819 -12.57792,4.14183 l -79.39246,71.45199 c -2.95547,2.66002 -7.81734,2.68532 -10.80174,0.0578 L -79.5696,221.79112 c -2.98802,-2.6275 -6.51143,-5.80435 -7.82819,-7.05846 -1.31675,-1.25412 -5.64324,-2.5769 -9.60436,-2.9347 l -40.91351,-3.70813 c -3.9792,-0.36142 -10.28444,0.40117 -14.05022,1.68781 L -238,239.16439"
         id="path939"
         style="opacity:0.32;fill:none;fill-rule:evenodd;stroke:#ffffff;stroke-width:0.5;stroke-opacity:1" />
      <path
         d="m 332,264.24279 -47.46232,-10.59918 c -3.88525,-0.86599 -10.29917,-1.94665 -14.25316,-2.39783 L 132.19884,235.498 c -3.95399,-0.45118 -9.50332,1.48454 -12.32863,4.3008 L 43.5181,315.84515 c -2.88794,2.81598 -7.45762,2.8798 -10.42217,0.14555 L -76.15422,213.09526 c -2.89405,-2.73622 -6.37052,-6.06552 -7.69816,-7.39724 -1.32764,-1.33172 -5.66147,-2.69983 -9.62993,-3.03458 l -42.36518,-3.59128 c -3.97931,-0.33475 -10.263,0.5276 -13.99632,1.9139 L -238,233.78059"
         id="path941"
         style="opacity:0.32;fill:none;fill-rule:evenodd;stroke:#ffffff;stroke-width:0.5;stroke-opacity:1" />
      <path
         d="m 332,260.64497 -47.29109,-10.40458 c -3.88516,-0.85744 -10.29168,-1.97428 -14.23834,-2.48586 L 132.97805,229.9464 c -3.94304,-0.50798 -9.37647,1.44108 -12.07148,4.37728 l -73.32235,79.41783 c -1.27614,1.39749 -3.07159,2.21308 -4.96781,2.25665 -1.89623,0.0436 -3.72753,-0.68869 -5.06703,-2.02608 L -72.73983,205.13463 c -2.82885,-2.78848 -6.2365,-6.20744 -7.57497,-7.59808 -1.33846,-1.39064 -5.68303,-2.78128 -9.65139,-3.08751 l -43.82194,-3.39014 c -3.97921,-0.30983 -10.23742,0.63408 -13.93809,2.09317 L -238,228.81876"
         id="path943"
         style="opacity:0.32;fill:none;fill-rule:evenodd;stroke:#ffffff;stroke-width:0.5;stroke-opacity:1" />
      <path
         d="m 332,258.18274 -47.12107,-10.38408 c -3.88516,-0.85537 -10.28807,-2.0297 -14.22387,-2.60961 L 133.75218,225.04793 c -3.93579,-0.57992 -9.24623,1.44978 -11.80378,4.50157 l -70.31262,84.0621 c -1.15968,1.45225 -2.89534,2.3236 -4.7506,2.38493 -1.85526,0.0613 -3.64447,-0.69348 -4.89718,-2.06598 L -69.31409,197.4078 c -2.75289,-2.88145 -6.10628,-6.43705 -7.45921,-7.90495 -1.35293,-1.46791 -5.70112,-2.89957 -9.66948,-3.19315 l -45.27616,-3.26202 c -3.97921,-0.28633 -10.21572,0.74664 -13.88382,2.29791 L -238,224.42089"
         id="path945"
         style="opacity:0.32;fill:none;fill-rule:evenodd;stroke:#ffffff;stroke-width:0.5;stroke-opacity:1" />
      <path
         d="m 332,255.14632 -46.95105,-10.27529 c -3.88877,-0.85024 -10.28083,-2.07315 -14.20939,-2.71716 L 134.52632,219.8232 c -3.92856,-0.64039 -9.116,1.41828 -11.53247,4.58047 l -67.31013,88.10338 c -2.41285,3.16218 -6.58378,3.33947 -9.2607,0.39799 L -65.89197,189.55089 c -2.67692,-2.9451 -5.98329,-6.60657 -7.34345,-8.14063 -1.36017,-1.53406 -5.71921,-3.01023 -9.69118,-3.25626 l -46.73401,-3.11515 c -3.9792,-0.26411 -10.19039,0.84663 -13.82594,2.47114 L -238,219.75084"
         id="path947"
         style="opacity:0.32;fill:none;fill-rule:evenodd;stroke:#ffffff;stroke-width:0.5;stroke-opacity:1" />
      <path
         d="m 332,250.69393 -46.78103,-10.23599 c -3.88877,-0.85088 -10.27359,-2.13083 -14.18769,-2.8399 l -135.73444,-24.6791 c -3.91771,-0.72725 -8.98216,1.38904 -11.25393,4.67256 l -64.31125,92.78209 c -2.27538,3.27261 -6.27268,3.49806 -8.88087,0.47998 L -62.44091,179.80559 c -2.60819,-3.02171 -5.86391,-6.81066 -7.23493,-8.42151 -1.37102,-1.61085 -5.759,-3.13443 -9.73097,-3.37806 l -48.19184,-2.97444 c -3.97921,-0.24362 -10.16507,0.94906 -13.76807,2.65082 L -238,213.38256"
         id="path949"
         style="opacity:0.32;fill:none;fill-rule:evenodd;stroke:#ffffff;stroke-width:0.5;stroke-opacity:1" />
      <path
         d="m 332,247.64861 -46.61071,-10.12482 c -3.88875,-0.84555 -10.2663,-2.17738 -14.16951,-2.94672 L 136.06499,207.72271 c -3.90322,-0.77298 -8.84103,1.34634 -10.97532,4.71765 l -61.31198,96.85716 c -2.13429,3.37131 -5.95793,3.62897 -8.50461,0.54434 L -59.01631,171.94108 c -2.53221,-3.07011 -5.75535,-6.95673 -7.13359,-8.63694 -1.37825,-1.68022 -5.76258,-3.23704 -9.73453,-3.45841 l -49.64936,-2.81971 c -3.97919,-0.22499 -10.12884,1.03426 -13.7101,2.80156 L -238,208.68438"
         id="path951"
         style="opacity:0.32;fill:none;fill-rule:evenodd;stroke:#ffffff;stroke-width:0.5;stroke-opacity:1" />
      <path
         d="M 332,243.59689 136.83065,201.48272 c -3.88878,-0.84055 -8.70362,1.29705 -10.69322,4.74618 L 67.82392,307.22465 c -1.99322,3.44913 -5.65409,3.72086 -8.13567,0.60505 L -60.63218,156.69475 c -2.48158,-3.11581 -7.76308,-5.83309 -11.73867,-6.03961 l -51.10751,-2.63394 c -3.97921,-0.20652 -10.1289,1.11952 -13.65592,2.94553 L -238,202.97903"
         id="path953"
         style="opacity:0.32;fill:none;fill-rule:evenodd;stroke:#ffffff;stroke-width:0.5;stroke-opacity:1" />
      <path
         d="M 332,243.58506 136.40778,201.46339 c -3.8972,-0.84069 -8.72247,1.29728 -10.71639,4.74702 L 67.25155,307.22416 c -1.99754,3.44974 -5.66635,3.72152 -8.1533,0.60515 L -66,151"
         id="path955"
         style="opacity:0.32;fill:none;fill-rule:evenodd;stroke:#ffffff;stroke-width:0.5;stroke-opacity:1" />
      <path
         d="M -66,151 61.73384,301.89941 c 2.58121,3.04817 6.38415,2.74263 8.44695,-0.68021 l 60.04586,-99.6187 c 2.06642,-3.42284 6.9352,-5.49255 10.82152,-4.5941 L 332,241.06314"
         id="path957"
         style="opacity:0.32;fill:none;fill-rule:evenodd;stroke:#ffffff;stroke-width:0.5;stroke-opacity:1" />
      <path
         d="M -66,151 64.36581,295.97209 c 2.6791,2.97665 6.61255,2.63698 8.74422,-0.75969 l 61.65549,-98.24778 c 2.13168,-3.39667 7.04396,-5.39084 10.91941,-4.43393 L 332,238.5501"
         id="path959"
         style="opacity:0.32;fill:none;fill-rule:evenodd;stroke:#ffffff;stroke-width:0.5;stroke-opacity:1" />
      <path
         d="M -66,151 67.0014,288.08081 c 2.77336,2.85698 6.84095,2.48087 9.03788,-0.83902 l 63.26512,-95.52801 c 2.19693,-3.31627 7.15272,-5.21128 11.01366,-4.20591 L 332,234.83248"
         id="path961"
         style="opacity:0.32;fill:none;fill-rule:evenodd;stroke:#ffffff;stroke-width:0.5;stroke-opacity:1" />
      <path
         d="M -66,151 69.62719,282.16547 c 2.87111,2.77445 7.06902,2.3532 9.33473,-0.93329 l 64.88992,-94.16794 c 2.26571,-3.29012 7.25027,-5.10223 11.10379,-4.03458 L 332,232.3125"
         id="path963"
         style="opacity:0.32;fill:none;fill-rule:evenodd;stroke:#ffffff;stroke-width:0.5;stroke-opacity:1" />
      <path
         d="M -66,151 72.26896,275.2687 c 1.35541,1.27406 3.20091,1.89321 5.05203,1.69493 1.85113,-0.19828 3.52301,-1.19419 4.57677,-2.72631 l 66.48439,-92.09686 c 2.33107,-3.22804 7.37024,-4.94701 11.19493,-3.81792 L 332,229.18227"
         id="path965"
         style="opacity:0.32;fill:none;fill-rule:evenodd;stroke:#ffffff;stroke-width:0.5;stroke-opacity:1" />
      <path
         d="M -66,151 74.90818,269.36553 c 1.44098,1.23048 3.32644,1.80618 5.20666,1.58977 1.88022,-0.21641 3.58662,-1.20552 4.71217,-2.73139 l 68.09764,-90.78109 c 2.39633,-3.19582 7.47175,-4.82828 11.27469,-3.63575 L 332,226.65999"
         id="path967"
         style="opacity:0.32;fill:none;fill-rule:evenodd;stroke:#ffffff;stroke-width:0.5;stroke-opacity:1" />
      <path
         d="M -66,151 77.55536,262.48024 c 3.17085,2.44117 7.71663,1.88273 10.20114,-1.2532 l 69.7186,-88.71623 c 2.46147,-3.133 7.56928,-4.66508 11.35393,-3.40464 L 332,223.50435"
         id="path969"
         style="opacity:0.32;fill:none;fill-rule:evenodd;stroke:#ffffff;stroke-width:0.5;stroke-opacity:1" />
      <path
         d="M -66,151 80.1975,256.58555 c 3.32502,2.32626 7.86734,1.72674 10.48074,-1.3833 l 71.33141,-87.4134 c 2.53772,-3.09786 7.66752,-4.53576 11.42695,-3.19978 L 332,221.01299"
         id="path971"
         style="opacity:0.32;fill:none;fill-rule:evenodd;stroke:#ffffff;stroke-width:0.5;stroke-opacity:1" />
      <path
         d="m -66,151 148.84759,98.70372 c 3.3244,2.20365 8.16418,1.52951 10.75264,-1.50413 l 72.9483,-85.31151 c 2.59209,-3.03001 7.7654,-4.34929 11.49945,-2.95752 L 332,217.83061"
         id="path973"
         style="opacity:0.32;fill:none;fill-rule:evenodd;stroke:#ffffff;stroke-width:0.5;stroke-opacity:1" />
      <path
         d="m -66,151 151.50494,92.81382 c 3.40778,2.08853 8.36357,1.34497 11.01728,-1.6475 l 74.57606,-84.06605 c 2.65372,-2.99246 7.85603,-4.22444 11.56109,-2.73732 L 332,215.33983"
         id="path975"
         style="opacity:0.32;fill:none;fill-rule:evenodd;stroke:#ffffff;stroke-width:0.5;stroke-opacity:1" />
      <path
         d="m -66,150.95368 154.17878,85.98395 c 3.48404,1.94462 8.55602,1.14283 11.27147,-1.77773 l 76.20297,-81.97499 c 2.71907,-2.92418 7.94332,-4.03798 11.60138,-2.48156 L 332,212.12927"
         id="path977"
         style="opacity:0.32;fill:none;fill-rule:evenodd;stroke:#ffffff;stroke-width:0.5;stroke-opacity:1" />
      <path
         d="m -66,151.61535 156.84501,79.44041 c 3.55642,1.81098 8.74059,0.93447 11.51758,-1.92326 l 77.83157,-80.12134 c 2.77698,-2.86134 8.02642,-3.861 11.6626,-2.22388 L 332,209.83109"
         id="path979"
         style="opacity:0.32;fill:none;fill-rule:evenodd;stroke:#ffffff;stroke-width:0.5;stroke-opacity:1" />
      <path
         d="M -66,152.2632 93.53135,225.18 c 3.6253,1.65572 8.91099,0.72302 11.7496,-2.06785 l 79.46659,-78.27439 c 2.83499,-2.79448 8.10255,-3.67656 11.69885,-1.963 L 332,207.51295"
         id="path981"
         style="opacity:0.32;fill:none;fill-rule:evenodd;stroke:#ffffff;stroke-width:0.5;stroke-opacity:1" />
      <path
         d="m -66,151.07487 162.2177,67.21286 c 3.68693,1.52615 9.06325,0.51845 11.96349,-2.24542 l 81.11973,-77.34097 c 2.90024,-2.76388 8.17505,-3.53426 11.72785,-1.71601 L 332,203.99007"
         id="path983"
         style="opacity:0.32;fill:none;fill-rule:evenodd;stroke:#ffffff;stroke-width:0.5;stroke-opacity:1" />
      <path
         d="m -66,151.74557 164.92942,60.65435 c 3.74494,1.37718 9.22277,0.3024 12.17739,-2.39003 l 82.75111,-75.47911 c 2.951,-2.69607 8.24031,-3.34094 11.7496,-1.43548 L 332,201.67028"
         id="path985"
         style="opacity:0.32;fill:none;fill-rule:evenodd;stroke:#ffffff;stroke-width:0.5;stroke-opacity:1" />
      <path
         d="m -66,152.08306 167.66176,53.43172 c 3.79945,1.20938 9.36449,0.079 12.3736,-2.51207 l 84.3892,-72.67058 c 3.00911,-2.59102 8.30224,-3.10061 11.7609,-1.13761 L 332,198.42715"
         id="path987"
         style="opacity:0.32;fill:none;fill-rule:evenodd;stroke:#ffffff;stroke-width:0.5;stroke-opacity:1" />
      <path
         d="m -66,151.01216 170.36738,47.59053 c 3.84281,1.08737 9.49103,-0.13773 12.55441,-2.69305 L 202.97918,124.194 c 3.06338,-2.53719 8.33819,-2.93952 11.75685,-0.86264 L 332,194.95638"
         id="path989"
         style="opacity:0.32;fill:none;fill-rule:evenodd;stroke:#ffffff;stroke-width:0.5;stroke-opacity:1" />
      <path
         d="m -66,151.16206 173.0936,40.54304 c 3.87907,0.9092 9.5998,-0.35655 12.71756,-2.7989 l 87.73227,-68.89215 c 3.11413,-2.44949 8.39982,-2.69907 11.74235,-0.55978 L 332,191.59101"
         id="path991"
         style="opacity:0.32;fill:none;fill-rule:evenodd;stroke:#ffffff;stroke-width:0.5;stroke-opacity:1" />
      <path
         d="m -66,151.09563 175.85608,34.55395 c 3.9117,0.7657 9.70493,-0.56799 12.86982,-2.97297 l 89.38178,-67.79575 c 3.16852,-2.40138 8.4397,-2.51642 11.71698,-0.26962 L 332,189"
         id="path993"
         style="opacity:0.32;fill:none;fill-rule:evenodd;stroke:#ffffff;stroke-width:0.5;stroke-opacity:1" />
      <path
         d="m -66,150.87162 178.61493,28.28715 c 3.93708,0.62324 9.78832,-0.78175 13.01121,-3.1234 l 91.05305,-66.28676 c 3.21564,-2.34165 8.47233,-2.33084 11.67709,0.0288 L 332,186"
         id="path995"
         style="opacity:0.32;fill:none;fill-rule:evenodd;stroke:#ffffff;stroke-width:0.5;stroke-opacity:1" />
      <path
         d="m -66,151.23822 181.38466,22.26149 c 3.95883,0.48609 9.8717,-1.00507 13.13447,-3.31492 l 92.73156,-65.54915 c 3.26277,-2.30619 8.49771,-2.15634 11.62634,0.3399 L 332,184"
         id="path997"
         style="opacity:0.32;fill:none;fill-rule:evenodd;stroke:#ffffff;stroke-width:0.5;stroke-opacity:1" />
      <path
         d="m -238,-186 213.93313,103.74259 c 3.58491,1.73527 9.40541,1.6663 12.95414,-0.15611 l 98.63012,-50.74409 c 3.5415,-1.81514 9.64054,-2.71908 13.55464,-1.99302 l 73.79262,13.70795 c 3.9141,0.72605 10.09634,0 13.74636,-1.59007 L 332,-186"
         id="path999"
         style="opacity:0.32;fill:none;fill-rule:evenodd;stroke:#ffffff;stroke-width:0.5;stroke-opacity:1" />
      <path
         d="m -238,-182 85.63751,39.17681 c 3.61858,1.65454 9.53498,4.38797 13.13909,6.0751 l 116.77184,54.54558 c 3.61859,1.68713 9.46261,1.58575 13.02692,-0.22085 l 62.4134,-31.78386 c 3.54622,-1.81022 9.37938,-4.70657 12.95817,-6.44801 l 22.63065,-10.99166 c 3.57878,-1.74143 9.71591,-2.585 13.63122,-1.87539 l 73.20042,13.2653 c 3.91531,0.72409 9.40833,0.3367 12.22721,-0.82908 2.81888,-1.16578 8.11649,-3.37425 11.78936,-4.90932 L 332,-181.38814"
         id="path1001"
         style="opacity:0.32;fill:none;fill-rule:evenodd;stroke:#ffffff;stroke-width:0.5;stroke-opacity:1" />
      <path
         d="m -238,-178 86.30901,37.15048 c 3.65594,1.57396 9.61764,4.19842 13.24824,5.83014 l 117.60888,52.87562 c 3.61973,1.63172 9.50905,1.50176 13.06363,-0.2888 l 61.96266,-31.20842 c 3.55458,-1.805 9.41131,-4.60996 13.03105,-6.26334 l 22.39893,-10.23795 c 3.61974,-1.65338 9.77329,-2.44036 13.71157,-1.74724 l 72.60468,12.82632 c 3.92018,0.69312 9.41132,0.361 12.22024,-0.722 2.80891,-1.083 8.11545,-3.18402 11.81482,-4.65329 L 332,-176.78343"
         id="path1003"
         style="opacity:0.32;fill:none;fill-rule:evenodd;stroke:#ffffff;stroke-width:0.5;stroke-opacity:1" />
      <path
         d="m -237,-174 86.83196,35.51063 c 3.68321,1.50583 9.67972,4.04464 13.32679,5.6414 l 118.24226,51.75103 c 3.64706,1.59312 9.53876,1.43308 13.09184,-0.36373 l 61.39287,-30.95677 c 3.55309,-1.79318 9.44839,-4.5575 13.10269,-6.13971 l 22.14625,-9.59147 c 3.65068,-1.58221 9.84238,-2.32058 13.76053,-1.63677 l 71.86056,12.52675 c 3.91815,0.6838 9.39779,0.40009 12.18459,-0.62925 2.78681,-1.02935 8.10379,-3.02984 11.82315,-4.44474 L 332,-172.185"
         id="path1005"
         style="opacity:0.32;fill:none;fill-rule:evenodd;stroke:#ffffff;stroke-width:0.5;stroke-opacity:1" />
      <path
         d="m -237,-170 87.49952,33.86542 c 3.71693,1.43734 9.76235,3.89035 13.42503,5.44868 l 119.09336,50.63314 c 3.66992,1.55833 9.58156,1.364 13.14301,-0.43267 l 60.92787,-30.71942 c 3.56145,-1.793 9.49478,-4.49901 13.18278,-6.00601 l 21.91465,-8.96136 c 3.688,-1.507 9.91421,-2.2 13.83722,-1.518 l 71.25065,12.22836 c 3.92301,0.67101 9.40077,0.43267 12.174,-0.53533 2.77323,-0.968 8.10636,-2.87101 11.85221,-4.22768 L 332,-167.55799"
         id="path1007"
         style="opacity:0.32;fill:none;fill-rule:evenodd;stroke:#ffffff;stroke-width:0.5;stroke-opacity:1" />
      <path
         d="m -237,-164 88.18865,31.47745 c 3.74702,1.33385 9.83049,3.64731 13.51963,5.1366 l 119.94062,48.3982 c 3.68915,1.48929 9.62433,1.26879 13.19412,-0.48799 l 60.45496,-29.79297 c 3.56618,-1.75678 9.53391,-4.33773 13.25922,-5.74026 l 21.70086,-8.14047 c 3.72531,-1.3953 9.98601,-2.00981 13.91025,-1.36277 l 70.64712,11.66126 c 3.92424,0.64704 9.40371,0.45185 12.15972,-0.43016 2.756,-0.882 8.10888,-2.64601 11.88121,-3.9148 L 332,-160.99251"
         id="path1009"
         style="opacity:0.32;fill:none;fill-rule:evenodd;stroke:#ffffff;stroke-width:0.5;stroke-opacity:1" />
      <path
         d="m -237,-160 88.87878,29.82555 c 3.77353,1.26506 9.89873,3.49259 13.60714,4.94359 l 120.77832,47.28485 c 3.70841,1.45829 9.66718,1.19944 13.24173,-0.56144 l 59.99661,-29.57035 c 3.57454,-1.76452 9.57673,-4.28371 13.33579,-5.59981 l 21.48344,-7.5211 c 3.75906,-1.3161 10.05069,-1.87389 13.9798,-1.2359 l 70.04006,11.36368 c 3.92911,0.63436 9.40669,0.48488 12.14549,-0.3354 2.73879,-0.82029 8.11146,-2.47908 11.9067,-3.68946 L 332,-156.36158"
         id="path1011"
         style="opacity:0.32;fill:none;fill-rule:evenodd;stroke:#ffffff;stroke-width:0.5;stroke-opacity:1" />
      <path
         d="m -237,-155 89.56572,27.46691 c 3.80368,1.16629 9.96703,3.25125 13.69471,4.63285 l 121.62741,45.02219 c 3.72768,1.3816 9.71007,1.10169 13.29299,-0.62082 l 59.52711,-28.62961 c 4.36086,-2.03023 8.83816,-3.80484 13.4088,-5.31467 l 21.27674,-6.73934 c 3.79283,-1.20217 10.1118,-1.68304 14.04577,-1.07657 l 69.43261,10.79801 c 3.93397,0.61005 9.40969,0.50599 12.13849,-0.23326 2.72881,-0.73924 8.10681,-2.25721 11.94307,-3.37326 L 332,-150.83726"
         id="path1013"
         style="opacity:0.32;fill:none;fill-rule:evenodd;stroke:#ffffff;stroke-width:0.5;stroke-opacity:1" />
      <path
         d="m -237,-150 90.26339,25.45909 c 3.83021,1.07166 10.02805,3.04709 13.77862,4.37595 l 122.46902,43.34154 c 3.75057,1.32529 9.75292,1.01808 13.34058,-0.68587 l 59.06418,-28.02393 c 4.36837,-1.99955 8.87041,-3.70153 13.47452,-5.09396 l 21.07702,-6.07274 c 3.82298,-1.09667 10.17287,-1.51105 14.11893,-0.91806 l 68.82434,10.35939 c 3.9352,0.59298 9.3909,0.53226 12.12418,-0.13575 2.73328,-0.668 8.10933,-2.06116 11.94678,-3.0971 L 332,-145.25611"
         id="path1015"
         style="opacity:0.32;fill:none;fill-rule:evenodd;stroke:#ffffff;stroke-width:0.5;stroke-opacity:1" />
      <path
         d="m -236,-145 90.79382,23.46293 c 3.84634,0.9954 10.06772,2.84399 13.83091,4.12023 l 123.11535,41.64671 c 3.76319,1.26913 9.76044,0.93496 13.37542,-0.74655 l 58.49036,-27.41963 c 4.37215,-1.96309 8.89234,-3.59022 13.52003,-4.86679 l 20.84035,-5.38225 c 3.84634,-0.99184 10.21232,-1.33668 14.14542,-0.76432 l 68.09898,9.92197 c 3.93309,0.57591 9.37364,0.55814 12.08849,-0.0356 2.71485,-0.59368 8.09393,-1.86637 11.9475,-2.82621 L 332,-139.66751"
         id="path1017"
         style="opacity:0.32;fill:none;fill-rule:evenodd;stroke:#ffffff;stroke-width:0.5;stroke-opacity:1" />
      <path
         d="m -236,-141 91.48692,21.80168 c 3.86921,0.92246 10.12504,2.68842 13.90023,3.92315 l 123.99552,40.54524 c 3.77881,1.23473 9.81043,0.86503 13.40844,-0.82196 l 58.02006,-27.20723 c 4.38069,-1.95713 8.92532,-3.53046 13.58202,-4.70205 l 20.6623,-4.80613 c 3.87282,-0.90092 10.26244,-1.1773 14.19674,-0.61736 l 67.49059,9.6338 c 3.93792,0.56352 9.3729,0.58865 12.07772,0.0574 2.70484,-0.53122 8.08918,-1.69417 11.96563,-2.58432 L 332,-135.02733"
         id="path1019"
         style="opacity:0.32;fill:none;fill-rule:evenodd;stroke:#ffffff;stroke-width:0.5;stroke-opacity:1" />
      <path
         d="m -236,-138 92.18397,20.43767 c 3.88863,0.86216 10.17193,2.57912 13.97012,3.78394 l 124.84844,40.07581 c 3.7982,1.21955 9.84999,0.81058 13.45285,-0.91006 l 57.55891,-27.44182 c 4.38788,-1.98335 8.9553,-3.52584 13.63733,-4.60557 l 20.48492,-4.29239 c 3.89586,-0.81426 10.30938,-1.02428 14.25227,-0.46424 l 66.88439,9.49116 c 3.93927,0.55635 9.36888,0.62635 12.06379,0.15474 2.6949,-0.47161 8.08834,-1.54378 11.98058,-2.37647 L 332,-131.25376"
         id="path1021"
         style="opacity:0.32;fill:none;fill-rule:evenodd;stroke:#ffffff;stroke-width:0.5;stroke-opacity:1" />
      <path
         d="m -236,-133 92.90085,18.12844 c 3.90434,0.76182 10.21858,2.32517 14.03246,3.46971 L -3.36432,-73.643 c 3.81388,1.14454 9.88569,0.7221 13.49693,-0.95679 l 57.08875,-26.40014 c 4.39611,-1.91813 8.98678,-3.35743 13.69233,-4.29292 l 20.31776,-3.58525 c 3.91882,-0.68961 10.35248,-0.81958 14.29662,-0.28884 l 66.27969,8.88911 c 3.94415,0.52714 9.36825,0.63906 12.05316,0.24552 2.68491,-0.39355 8.09816,-1.30701 11.99164,-2.05078 L 332,-125.79701"
         id="path1023"
         style="opacity:0.32;fill:none;fill-rule:evenodd;stroke:#ffffff;stroke-width:0.5;stroke-opacity:1" />
      <path
         d="m -236,-129 93.60732,16.43207 c 3.92368,0.68726 10.26528,2.16048 14.09123,3.26813 l 126.57494,36.70256 c 3.82595,1.09669 9.91779,0.64339 13.53742,-1.03455 l 56.6183,-26.26206 c 4.40875,-1.9141 9.02544,-3.29693 13.7546,-4.1199 l 20.16135,-3.00493 c 4.75978,-0.59694 9.57177,-0.63865 14.34099,-0.12429 l 65.66738,8.6346 c 3.94901,0.5191 9.3676,0.67264 12.04251,0.34363 2.67491,-0.32901 8.0754,-1.1369 12.00271,-1.79857 L 332,-121.09287"
         id="path1025"
         style="opacity:0.32;fill:none;fill-rule:evenodd;stroke:#ffffff;stroke-width:0.5;stroke-opacity:1" />
      <path
         d="m -236,-124 94.32451,14.43417 c 3.93576,0.60021 10.30107,1.95705 14.1427,3.01197 l 127.45086,34.99777 c 3.84163,1.05492 9.94986,0.56384 13.57424,-1.09129 l 56.1508,-25.6563 c 3.62077,-1.65877 9.82675,-3.39756 13.78425,-3.87046 l 20.01196,-2.38265 c 4.78228,-0.46689 9.59916,-0.44983 14.37805,0.0509 l 65.06149,8.20653 c 3.95388,0.49836 9.3633,0.69479 12.02818,0.43652 2.66488,-0.25828 8.0562,-0.93488 12.00645,-1.4878 L 332,-115.53884"
         id="path1027"
         style="opacity:0.32;fill:none;fill-rule:evenodd;stroke:#ffffff;stroke-width:0.5;stroke-opacity:1" />
      <path
         d="m -235,-118 94.87299,12.70184 c 4.76555,0.69271 9.49344,1.63276 14.16533,2.81648 L 2.13006,-68.52152 c 3.84684,1.0225 9.96418,0.49464 13.59047,-1.17384 l 55.5803,-25.55133 c 3.61545,-1.66479 9.83402,-3.32219 13.79655,-3.69132 l 19.8452,-1.80506 c 4.79035,-0.34835 9.60126,-0.27177 14.37864,0.22886 l 64.35499,7.93265 c 3.94807,0.48726 9.34594,0.73827 11.99244,0.54263 2.64651,-0.19564 8.04799,-0.73827 11.99245,-1.24029 L 332,-108.80123"
         id="path1029"
         style="opacity:0.32;fill:none;fill-rule:evenodd;stroke:#ffffff;stroke-width:0.5;stroke-opacity:1" />
      <path
         d="m -235,-114 95.60914,10.46835 c 4.78048,0.58083 9.52549,1.42031 14.21388,2.5147 L 3.79319,-69.46462 c 3.8627,0.94481 9.99673,0.40235 13.63158,-1.20706 l 55.11224,-24.39261 c 3.63485,-1.60941 9.8593,-3.11823 13.8305,-3.35174 l 19.7186,-1.16754 c 4.80646,-0.21216 9.62207,-0.0789 14.40918,0.39876 l 63.73461,7.34293 c 3.9495,0.45265 9.3421,0.71849 11.98233,0.6179 2.64024,-0.10059 8.01837,-0.54246 11.96788,-0.93403 L 332,-104.43695"
         id="path1031"
         style="opacity:0.32;fill:none;fill-rule:evenodd;stroke:#ffffff;stroke-width:0.5;stroke-opacity:1" />
      <path
         d="m -235,-110 96.31374,8.50912 c 4.79156,0.47926 9.55093,1.2315 14.25423,2.25294 l 129.84735,29.8158 c 3.87469,0.89119 10.02499,0.32439 13.66814,-1.25837 l 54.62916,-23.74141 c 3.64315,-1.58277 9.87666,-2.97303 13.85627,-3.0871 l 19.62308,-0.58106 c 4.81529,-0.0816 9.63135,0.11002 14.42427,0.57393 l 63.12381,6.90854 c 3.97542,0.43971 7.97116,0.67768 11.97138,0.71295 2.62655,-0.0463 8.02434,-0.32796 11.98948,-0.63096 L 332,-99.91168"
         id="path1033"
         style="opacity:0.32;fill:none;fill-rule:evenodd;stroke:#ffffff;stroke-width:0.5;stroke-opacity:1" />
      <path
         d="m -235,-105 97.04594,6.74104 c 4.79979,0.39583 9.57114,1.08365 14.28764,2.05966 L 7.06114,-67.38944 c 3.88676,0.85577 10.05346,0.25383 13.70499,-1.34168 l 54.17216,-23.67884 c 3.6479,-1.59189 9.8906,-2.90093 13.87146,-2.90093 h 19.50979 c 3.98085,0 10.47688,0.36261 14.43602,0.76512 l 62.53557,6.64675 c 3.95913,0.42064 9.34052,0.78325 11.94255,0.80864 2.60203,0.0254 8.00875,-0.13417 11.98599,-0.36262 L 332,-94.15415"
         id="path1035"
         style="opacity:0.32;fill:none;fill-rule:evenodd;stroke:#ffffff;stroke-width:0.5;stroke-opacity:1" />
      <path
         d="m -235,-100 97.77685,4.64597 c 4.80751,0.28657 9.59107,0.86952 14.32134,1.7453 L 8.71265,-67.33855 c 3.89891,0.7784 10.07852,0.16755 13.73488,-1.35086 l 53.70505,-22.33978 c 3.65636,-1.5184 9.90475,-2.6703 13.8833,-2.55511 l 19.42577,0.56199 c 3.98217,0.11519 10.49846,0.52708 14.44081,0.91104 l 61.9047,6.03174 c 3.98217,0.38746 9.33639,0.77491 11.94652,0.86567 2.61014,0.0908 7.99693,0.0663 11.97549,-0.0524 L 332,-88.97672"
         id="path1037"
         style="opacity:0.32;fill:none;fill-rule:evenodd;stroke:#ffffff;stroke-width:0.5;stroke-opacity:1" />
      <path
         d="m -235,-95 98.50226,2.84582 c 4.81418,0.20745 9.60879,0.73155 14.35163,1.56876 l 132.50365,25.27446 c 3.91111,0.74703 10.10734,0.0996 13.76134,-1.42291 L 77.35356,-89.038 c 3.66124,-1.53319 9.91541,-2.59682 13.89171,-2.36204 l 19.36728,1.14189 c 3.98355,0.23478 10.47673,0.7328 14.44217,1.10631 l 61.30317,5.77347 c 3.98355,0.37351 9.33599,0.81106 11.92892,0.97469 2.59292,0.16364 7.96709,0.2668 11.95064,0.23122 L 332,-83.16494"
         id="path1039"
         style="opacity:0.32;fill:none;fill-rule:evenodd;stroke:#ffffff;stroke-width:0.5;stroke-opacity:1" />
      <path
         d="m -234,-90 99.08128,0.99755 c 4.80495,0.11718 9.59589,0.57216 14.33786,1.36162 l 133.1486,24.35255 c 3.91624,0.72814 10.1251,0.0255 13.78098,-1.52908 l 52.66857,-22.35383 c 3.66311,-1.55457 9.90451,-2.54848 13.86414,-2.18441 l 103.64119,9.46579 c 3.97772,0.36407 10.45778,0.70629 14.4355,0.76454 L 332,-77.30492"
         id="path1041"
         style="opacity:0.32;fill:none;fill-rule:evenodd;stroke:#ffffff;stroke-width:0.5;stroke-opacity:1" />
      <path
         d="m -238,-217.00496 99.28182,23.63778 c 3.87707,0.92161 10.00066,0.28413 13.60959,-1.42067 l 34.00221,-16.05723 c 3.60531,-1.7048 9.4209,-4.67728 12.91026,-6.60794 l 37.32127,-20.63616 c 3.55464,-1.91453 7.97737,-0.71959 10.09848,2.72842 l 19.20415,31.95781 c 2.06173,3.42783 6.5439,7.92298 9.96442,9.98477 l 32.13252,19.37577 c 3.41689,2.06179 9.29409,2.66284 13.04433,1.34053 l 131.17883,-46.11717 c 3.76111,-1.32232 9.6528,-0.74676 13.09143,1.2786 L 263,-173.27744"
         id="path1043"
         style="opacity:0.32;fill:none;fill-rule:evenodd;stroke:#ffffff;stroke-width:0.5;stroke-opacity:1" />
      <path
         d="m -238,-216.34402 97.76845,24.35366 c 3.86729,0.96399 10.02308,0.43048 13.6731,-1.18476 l 33.263,-14.71742 c 3.65365,-1.61524 9.5451,-4.44466 13.09011,-6.28434 l 36.57265,-18.99284 c 3.66123,-1.80836 8.0745,-0.57907 10.31638,2.87358 l 19.35453,31.12735 c 2.12918,3.4218 6.66998,7.9143 10.09188,9.98578 l 31.65887,19.16576 c 3.4219,2.07148 9.28801,2.64178 13.0358,1.26938 l 65.38175,-23.96733 c 3.74779,-1.3724 9.9253,-3.47699 13.73103,-4.67646 l 42.98191,-13.55107 c 3.80211,-1.19947 9.70442,-3.19 13.10821,-4.41522 3.4038,-1.22523 9.09971,-0.73588 12.64835,1.1038 L 266,-174.28162"
         id="path1045"
         style="opacity:0.32;fill:none;fill-rule:evenodd;stroke:#ffffff;stroke-width:0.5;stroke-opacity:1" />
      <path
         d="m -238,-213.99149 96.01739,24.71878 c 3.84994,0.99227 10.01851,0.57852 13.72399,-0.91538 l 32.45002,-13.15943 c 3.68742,-1.49389 9.64652,-4.11918 13.24004,-5.83643 l 35.77267,-17.06991 c 3.61158,-1.71724 8.3283,-0.36615 10.52052,2.98412 l 19.46279,29.84123 c 2.19223,3.35759 6.78254,7.78068 10.20271,9.83112 l 31.12818,18.64436 c 3.42016,2.04678 9.26731,2.56305 13.00168,1.17534 l 66.8864,-25.17647 c 3.72354,-1.39869 9.90656,-3.41618 13.724,-4.47435 l 44.29599,-12.26969 c 3.82105,-1.06183 9.81265,-2.98046 13.28338,-4.24368 3.47073,-1.26321 9.2962,-0.99959 12.93667,0.61147 L 268,-174.22395"
         id="path1047"
         style="opacity:0.32;fill:none;fill-rule:evenodd;stroke:#ffffff;stroke-width:0.5;stroke-opacity:1" />
      <path
         d="m -238,-213.41574 94.66691,25.43103 c 3.84772,1.03174 10.05325,0.7396 13.79249,-0.64345 l 31.79792,-11.80766 c 3.73923,-1.38674 9.78927,-3.83851 13.44171,-5.44713 l 35.1032,-15.45387 c 3.65244,-1.60862 8.49464,-0.1886 10.76204,3.15438 l 19.64362,29.01807 c 2.26741,3.32819 6.92879,7.76577 10.36064,9.81815 l 30.71666,18.40856 c 3.43185,2.05978 9.27937,2.55531 12.9969,1.1094 l 68.64418,-26.79189 c 4.51855,-1.70221 9.124,-3.15272 13.7961,-4.34513 l 45.79654,-11.11984 c 3.86941,-0.93929 9.94476,-2.79937 13.50318,-4.13435 3.55842,-1.33497 9.51804,-1.2795 13.25004,0.12574 L 272,-175.36719"
         id="path1049"
         style="opacity:0.32;fill:none;fill-rule:evenodd;stroke:#ffffff;stroke-width:0.5;stroke-opacity:1" />
      <path
         d="m -238,-211.05683 93.13539,25.34062 c 3.83456,1.04169 10.06527,0.88978 13.84562,-0.34362 l 31.08127,-10.12756 c 3.78035,-1.25148 9.90264,-3.42167 13.6071,-4.86847 l 34.3701,-13.38286 c 3.70445,-1.44679 8.64854,0 10.98325,3.22997 l 19.78721,27.26125 c 2.33471,3.21912 7.05834,7.49078 10.48089,9.49097 l 30.24642,17.59665 c 3.45146,2.0002 9.29547,2.46317 12.9963,1.01638 l 70.27621,-27.48912 c 4.50118,-1.69571 9.1172,-3.0688 13.81309,-4.10889 l 47.22908,-9.63566 c 4.63966,-1.00839 9.21001,-2.31318 13.68298,-3.90635 3.61411,-1.35275 9.7111,-1.51552 13.51674,-0.3617 L 275,-175.91056"
         id="path1051"
         style="opacity:0.32;fill:none;fill-rule:evenodd;stroke:#ffffff;stroke-width:0.5;stroke-opacity:1" />
      <path
         d="m -238,-210 91.60379,25.85056 c 3.82495,1.08707 10.07706,1.06171 13.89479,-0.0399 l 30.36845,-8.75817 c 3.81773,-1.08707 10.01567,-3.07279 13.76838,-4.37728 l 33.64801,-11.68964 c 3.75272,-1.30448 8.79486,0.22104 11.19675,3.39166 l 19.91936,26.22017 c 2.4091,3.17062 7.19481,7.39208 10.6369,9.38142 l 29.78333,17.20834 c 3.4421,1.98935 9.27524,2.40606 12.96294,0.92764 l 71.90114,-28.86537 c 4.48552,-1.71459 9.11185,-3.03255 13.82617,-3.93882 l 48.67692,-8.38132 c 4.70989,-0.89383 9.3425,-2.15752 13.85507,-3.77939 3.70215,-1.40232 9.89286,-1.78642 13.75754,-0.85154 L 278,-176.85882"
         id="path1053"
         style="opacity:0.32;fill:none;fill-rule:evenodd;stroke:#ffffff;stroke-width:0.5;stroke-opacity:1" />
      <path
         d="m -238,-209 90.07474,26.8035 c 3.81177,1.13312 10.08531,1.2623 13.94039,0.2842 l 29.67117,-7.53317 c 3.85148,-0.9781 10.10697,-2.74236 13.91152,-3.92346 l 32.93789,-10.22017 c 3.79733,-1.17741 8.93744,0.45029 11.41726,3.6208 l 20.04428,25.61133 c 2.48343,3.17051 7.33477,7.41138 10.78197,9.42662 l 29.31021,17.12221 c 3.44719,2.01524 9.27314,2.40648 12.94774,0.86737 l 73.52458,-30.76387 c 4.46871,-1.75891 9.10264,-3.04274 13.8285,-3.83118 l 50.145,-7.26374 c 4.73196,-0.78679 9.38199,-2.02243 13.88986,-3.69093 l 0.25267,-0.0997 c 3.7107,-1.45053 9.94093,-2.04108 13.84655,-1.31028 L 281,-177.33555"
         id="path1055"
         style="opacity:0.32;fill:none;fill-rule:evenodd;stroke:#ffffff;stroke-width:0.5;stroke-opacity:1" />
      <path
         d="m -238,-208 88.89108,26.88907 c 3.81319,1.15406 10.13953,1.43074 14.02514,0.61526 l 29.10045,-6.07608 c 3.89285,-0.81548 10.24454,-2.30446 14.10119,-3.30925 l 32.3632,-8.43515 c 3.85664,-0.99751 9.10747,0.68079 11.67494,3.7352 l 20.25371,24.19143 c 2.56748,3.06534 7.49963,7.18644 10.96518,9.15962 l 28.94473,16.48439 c 3.46555,1.97681 9.31026,2.32631 12.98584,0.78272 l 75.43086,-31.68732 c 4.46849,-1.75733 9.12736,-2.97927 13.88029,-3.64054 l 51.81661,-5.84672 c 4.75946,-0.64608 9.43682,-1.8006 13.95272,-3.44396 l 0.55405,-0.21843 c 3.71542,-1.45622 9.98744,-2.21345 13.93823,-1.70742 L 286,-178.85743"
         id="path1057"
         style="opacity:0.32;fill:none;fill-rule:evenodd;stroke:#ffffff;stroke-width:0.5;stroke-opacity:1" />
      <path
         d="m -238,-206 87.36286,27.00756 c 3.79996,1.17502 10.13323,1.60263 14.04899,0.95223 l 28.43093,-4.71087 c 3.92663,-0.63602 10.32503,-1.85776 14.21909,-2.68423 l 31.6808,-6.73032 c 3.89405,-0.82647 9.23932,0.9163 11.87758,3.87362 l 20.38226,22.83928 c 2.63825,2.96091 7.63972,6.96389 11.11035,8.89711 l 28.47074,15.87179 c 3.47425,1.93322 9.30809,2.24943 12.97053,0.7007 l 77.05592,-32.62395 c 3.66244,-1.54873 9.90523,-3.09386 13.87166,-3.42804 l 53.308,-4.47731 c 4.76386,-0.52065 9.44769,-1.60639 13.95127,-3.234 l 0.85771,-0.33059 c 3.70586,-1.46609 9.98484,-2.39317 13.95489,-2.10211 L 289,-179.29788"
         id="path1059"
         style="opacity:0.32;fill:none;fill-rule:evenodd;stroke:#ffffff;stroke-width:0.5;stroke-opacity:1" />
      <path
         d="m -238,-204 85.82992,27.5293 c 3.78677,1.21384 10.12699,1.80095 14.06205,1.31469 l 27.78414,-3.44702 c 3.94953,-0.48985 10.39103,-1.44075 14.31162,-2.08189 l 31.03563,-5.17953 c 3.92421,-0.65554 9.3747,1.17782 12.07283,4.07375 l 20.49993,21.86711 c 2.71621,2.88152 7.78332,6.8436 11.25905,8.76341 l 28.00115,15.50977 c 3.47573,1.92341 9.30598,2.20796 12.95532,0.63033 l 78.66145,-34.04152 c 3.64934,-1.58123 9.88467,-3.06161 13.8559,-3.29214 l 54.82684,-3.19128 c 3.97846,-0.23052 10.24635,-1.61365 13.94632,-3.07241 l 1.15375,-0.45744 c 3.69997,-1.44076 9.97871,-2.57536 13.95718,-2.48171 L 292,-179.29099"
         id="path1061"
         style="opacity:0.32;fill:none;fill-rule:evenodd;stroke:#ffffff;stroke-width:0.5;stroke-opacity:1" />
      <path
         d="m -238,-203 84.33311,27.65294 c 3.77007,1.23511 10.0993,1.9897 14.06455,1.67292 l 27.14232,-2.17479 c 3.9761,-0.31679 10.43546,-0.95748 14.38264,-1.42376 l 30.3991,-3.60211 c 3.94719,-0.46628 9.46312,1.42376 12.25362,4.22144 l 20.62151,20.60534 c 3.44309,3.27407 7.27312,6.12899 11.4078,8.5034 l 27.52908,14.94946 c 3.48089,1.88648 9.30769,2.13563 12.94401,0.55526 l 80.29195,-34.98529 c 3.63632,-1.58393 9.86435,-2.98633 13.83683,-3.11803 l 56.3269,-1.84733 c 3.9761,-0.12814 10.2475,-1.42376 13.93804,-2.88311 l 1.44586,-0.5695 c 3.69054,-1.45579 9.96194,-2.72294 13.93804,-2.81904 L 295,-180.62208"
         id="path1063"
         style="opacity:0.32;fill:none;fill-rule:evenodd;stroke:#ffffff;stroke-width:0.5;stroke-opacity:1" />
      <path
         d="m -238,-203 82.95475,28.56644 c 3.76393,1.29453 10.09745,2.23469 14.07491,2.09005 l 26.61168,-0.97993 c 3.98108,-0.14464 10.49556,-0.49901 14.45492,-0.78106 l 29.85083,-2.14429 c 3.98107,-0.28205 9.56905,1.73568 12.44267,4.49108 l 20.78121,19.93142 c 3.53728,3.24051 7.42115,6.08176 11.58131,8.4723 l 27.1075,14.76776 c 3.49249,1.90202 9.32296,2.12621 12.95659,0.4954 l 82.06806,-36.89049 c 3.61916,-1.63082 9.85859,-2.99767 13.83966,-3.03383 l 57.9536,-0.53155 c 3.98108,-0.0362 10.2567,-1.28368 13.94824,-2.77348 l 1.75168,-0.7232 c 3.69154,-1.48979 9.95992,-2.93981 13.93014,-3.21824 L 299,-182.33815"
         id="path1065"
         style="opacity:0.32;fill:none;fill-rule:evenodd;stroke:#ffffff;stroke-width:0.5;stroke-opacity:1" />
      <path
         d="m -238,-200 81.43675,28.69309 c 3.74721,1.32 10.06973,2.42894 14.04843,2.46472 l 26.0424,0.23252 c 3.9787,0.0322 10.4893,0 14.468,-0.0966 l 29.2977,-0.64391 c 3.9787,-0.0859 9.64292,2.00326 12.59077,4.65042 l 20.90265,18.74477 c 3.62166,3.11505 7.55009,5.86301 11.72631,8.20263 l 26.63559,14.21597 c 3.50125,1.86732 9.32462,2.06049 12.94524,0.42569 l 83.66121,-37.82222 c 3.617,-1.6348 9.83462,-2.92976 13.81332,-2.86179 l 59.48518,0.81919 c 3.9787,0.0537 10.24696,-1.11611 13.92907,-2.60424 l 2.04722,-0.82634 c 4.47891,-1.68864 9.13735,-2.86835 13.88566,-3.51644 L 302,-181.58076"
         id="path1067"
         style="opacity:0.32;fill:none;fill-rule:evenodd;stroke:#ffffff;stroke-width:0.5;stroke-opacity:1" />
      <path
         d="m -238,-199 79.92524,29.55998 c 4.53042,1.54129 9.23263,2.51654 14.00047,2.90373 l 25.50667,1.43008 c 3.97638,0.22504 10.48319,0.5009 14.45957,0.61342 l 28.74199,0.83845 c 3.97638,0.11252 9.69876,2.33024 12.7208,4.92182 l 21.0459,18.04669 c 3.70727,3.06184 7.68025,5.78407 11.8713,8.13407 l 26.16097,14.02502 c 3.51006,1.8838 9.33003,2.04713 12.93769,0.36297 l 85.27167,-39.72304 c 3.61489,-1.68053 9.81081,-2.94002 13.78357,-2.79484 l 61.01936,2.21047 c 3.97638,0.14519 10.23376,-0.98364 13.9101,-2.50447 l 2.34245,-0.96549 c 4.46827,-1.74629 9.09556,-3.05068 13.81612,-3.89463 L 305,-182.40518"
         id="path1069"
         style="opacity:0.32;fill:none;fill-rule:evenodd;stroke:#ffffff;stroke-width:0.5;stroke-opacity:1" />
      <path
         d="m -238,-198 78.41495,30.05649 c 4.51272,1.61675 9.18586,2.73807 13.93803,3.34445 l 25.00391,2.62104 c 3.95236,0.41442 10.43004,1.01424 14.38962,1.33415 l 28.26262,2.29386 c 3.97404,0.3199 9.73278,2.63557 12.83252,5.14028 l 21.1491,17.13307 c 3.79378,2.96409 7.81401,5.62245 12.02326,7.95036 l 25.67589,13.63229 c 3.51521,1.86854 9.33176,2.00304 12.92645,0.2981 l 86.91217,-41.14773 c 3.59469,-1.70494 9.78335,-2.90822 13.75016,-2.68283 l 62.56216,3.60983 c 3.97404,0.22902 10.21688,-0.83975 13.88745,-2.37384 l 2.6337,-1.09058 c 4.46549,-1.77671 9.06939,-3.17864 13.76461,-4.19148 L 308,-183.45525"
         id="path1071"
         style="opacity:0.32;fill:none;fill-rule:evenodd;stroke:#ffffff;stroke-width:0.5;stroke-opacity:1" />
      <path
         d="m -238,-196 77.04449,30.20397 c 4.50105,1.66626 9.14704,2.91566 13.87886,3.73231 l 24.59636,3.7611 c 3.92095,0.60106 10.36665,1.52603 14.3093,2.04071 l 27.85176,3.71071 c 3.94266,0.52548 9.76621,2.90811 12.94565,5.29074 l 21.31926,16.01257 c 3.88129,2.83038 7.95284,5.39297 12.18605,7.66976 l 25.26915,13.13326 c 3.52668,1.83196 9.35023,1.93633 12.94202,0.23034 l 88.66627,-42.10992 c 3.5918,-1.70239 9.76621,-2.84692 13.74503,-2.54099 l 64.21821,4.96681 c 3.97882,0.30593 10.21473,-0.69464 13.88609,-2.22427 l 2.9371,-1.22371 c 4.46372,-1.78687 9.04528,-3.26718 13.71247,-4.43054 L 312,-183.65495"
         id="path1073"
         style="opacity:0.32;fill:none;fill-rule:evenodd;stroke:#ffffff;stroke-width:0.5;stroke-opacity:1" />
      <path
         d="m -238,-195 75.55386,31.0368 c 4.47936,1.75541 9.08499,3.16385 13.77683,4.21307 l 24.14831,4.98572 c 3.89699,0.80179 10.28111,2.07009 14.18894,2.81357 l 27.43798,5.23355 c 3.90783,0.7289 9.76055,3.24363 13.01406,5.5579 l 21.45513,15.28515 c 3.96214,2.75212 8.078,5.27222 12.32721,7.54782 l 24.78817,12.89434 c 3.53548,1.84048 9.35566,1.91702 12.93453,0.17129 l 90.2742,-44.04047 c 3.57887,-1.74573 9.76055,-2.85731 13.70453,-2.46735 l 65.76801,6.45446 c 3.95844,0.38632 10.19435,-0.56855 13.85636,-2.1284 l 3.22821,-1.37764 c 4.45647,-1.83132 9.0099,-3.41302 13.63946,-4.73788 L 315,-184.58394"
         id="path1075"
         style="opacity:0.32;fill:none;fill-rule:evenodd;stroke:#ffffff;stroke-width:0.5;stroke-opacity:1" />
      <path
         d="m -238,-194 74.1728,31.53024 c 4.463,1.82859 9.03185,3.38259 13.68142,4.65343 l 23.79769,6.17174 c 3.85469,1.00003 10.17419,2.59862 14.04336,3.55486 l 27.14566,6.68635 c 3.86916,0.95259 9.75072,3.54391 13.07335,5.75566 l 21.6369,14.39464 c 3.32263,2.18985 8.94359,5.51113 12.49062,7.33236 l 24.35871,12.52231 c 3.54703,1.82487 9.3743,1.86867 12.95029,0.10219 l 92.03103,-45.465 c 3.57237,-1.76648 9.73624,-2.83221 13.68865,-2.36869 l 67.4443,7.88712 c 3.9524,0.46352 10.18505,-0.44162 13.85152,-2.01466 l 3.52532,-1.51465 c 3.66647,-1.57305 9.77244,-3.82495 13.58007,-5.00747 L 319,-185.65666"
         id="path1077"
         style="opacity:0.32;fill:none;fill-rule:evenodd;stroke:#ffffff;stroke-width:0.5;stroke-opacity:1" />
      <path
         d="m -238,-192 72.67546,31.68178 c 3.64625,1.59096 9.73781,3.85807 13.53599,5.04045 l 23.43657,7.2931 c 3.8018,1.18237 10.02358,3.0879 13.83623,4.23773 l 26.80068,8.08858 c 4.56036,1.48597 8.94893,3.4545 13.09106,5.87209 l 21.78346,13.37852 c 3.38943,2.08271 9.07223,5.25016 12.62443,7.03637 l 23.87427,12.01898 c 3.55582,1.78621 9.3797,1.8079 12.94637,0.0361 l 93.65226,-46.41622 c 3.56667,-1.76452 9.70887,-2.77695 13.65174,-2.24904 l 69.00027,9.26734 c 3.94287,0.53152 10.16103,-0.3182 13.81813,-1.88385 l 3.81989,-1.63796 c 3.6571,-1.56926 9.73057,-3.90508 13.4962,-5.19231 L 322,-185.79888"
         id="path1079"
         style="opacity:0.32;fill:none;fill-rule:evenodd;stroke:#ffffff;stroke-width:0.5;stroke-opacity:1" />
      <path
         d="m -238,-189 71.30264,32.16741 c 3.62163,1.64042 9.66251,4.10285 13.40003,5.4753 l 23.14946,8.49179 c 3.74114,1.37245 9.86894,3.59951 13.61371,4.95385 l 26.5574,9.57816 c 4.50807,1.70083 8.88925,3.72055 13.1103,6.04383 l 21.97967,12.51136 c 3.46228,1.97357 9.21343,5.03351 12.78073,6.80792 l 23.45368,11.6495 c 3.5673,1.77078 9.39813,1.75992 12.96181,-0.0254 l 95.42994,-47.86182 c 3.56006,-1.78527 9.6951,-2.75938 13.63544,-2.17274 l 70.67972,10.73333 c 3.94033,0.5975 10.14056,-0.20641 13.8129,-1.78527 l 4.13227,-1.76716 c 3.65785,-1.57886 9.70235,-4.01595 13.43263,-5.41374 L 326,-184.86093"
         id="path1081"
         style="opacity:0.32;fill:none;fill-rule:evenodd;stroke:#ffffff;stroke-width:0.5;stroke-opacity:1" />
      <path
         d="m -238,-186 213.93313,103.74259 c 3.58491,1.73527 9.40541,1.6663 12.95414,-0.15611 l 98.63012,-50.74409 c 3.5415,-1.81514 9.64054,-2.71908 13.55464,-1.99302 l 73.79262,13.70795 c 3.9141,0.72605 10.09634,0 13.74636,-1.59007 L 332,-186"
         id="path1085"
         style="opacity:0.32;fill:none;fill-rule:evenodd;stroke:#ffffff;stroke-width:0.5;stroke-opacity:1" />
      <path
         d="m -238,-188 69.8104,32.65002 c 3.61956,1.68598 9.55563,4.35092 13.22224,5.89912 l 22.8575,9.71342 c 3.66661,1.55546 9.66784,4.09712 13.33445,5.64532 l 26.30332,11.09484 c 3.67023,1.5482 9.55563,4.35092 13.07746,6.19281 l 22.15169,11.66408 c 3.52183,1.8564 9.33122,4.81139 12.90734,6.56626 l 22.97695,11.28339 c 3.57612,1.75487 9.41085,1.71498 12.95801,-0.087 l 97.02947,-49.31041 c 3.55079,-1.81288 9.66784,-2.73745 13.59506,-2.07394 l 72.24274,12.20795 c 3.92722,0.66352 10.13476,-0.0943 13.77603,-1.68598 l 4.41224,-1.91803 c 3.65214,-1.59171 9.65698,-4.12249 13.34169,-5.62718 L 329,-185.91156"
         id="path1083"
         style="opacity:0.32;fill:none;fill-rule:evenodd;stroke:#ffffff;stroke-width:0.5;stroke-opacity:1" />
      <path
         d="m 375.66603,310.32937 c 3.46942,2.20777 4.35213,6.19279 1.87785,10.08786 -1.94898,3.06705 -4.62668,4.44133 -7.15781,3.56392 l 1.65332,-4.07365 c 1.15656,0.36993 2.22459,0.0592 2.9831,-1.13747 1.09152,-1.71753 0.44744,-3.44012 -1.62745,-4.76156 -2.04493,-1.30021 -3.83229,-1.12359 -4.94244,0.62404 -0.91613,1.44173 -0.7124,2.97028 0.12605,3.56865 l 0.1396,0.0891 1.84083,-2.89841 2.27589,1.44749 -3.90629,6.15054 -6.3326,-4.03094 1.62603,-2.56136 1.70974,0.93794 c -0.71844,-1.23291 -0.80253,-3.05117 0.57102,-5.21292 2.16291,-3.40474 5.72434,-3.98068 9.16316,-1.79328 z m -14.25446,9.94469 10.26317,7.70408 -6.57124,9.01362 -2.29776,-1.72472 4.10242,-5.62785 -1.66276,-1.24757 -3.91867,5.37516 -2.18162,-1.63855 3.91781,-5.3758 -1.82006,-1.36746 -4.17964,5.73208 -2.29776,-1.72472 z m -15.81039,19.53995 2.6914,-3.05415 7.52174,0.84769 0.46535,0.0821 c 0.47891,0.0909 0.978,0.20577 1.31251,0.322 l 0.0347,-0.039 -5.87152,-5.14124 2.44621,-2.775 9.71683,8.50802 -2.83223,3.21258 -7.32833,-0.98343 c -0.52917,-0.0873 -1.30644,-0.2508 -1.81655,-0.41496 l -0.0354,0.0398 5.85825,5.12863 -2.44559,2.77417 z m 26.93162,-37.18061 11.05941,6.01269 -2.10263,3.71834 -11.05958,-6.01419 z m -32.60339,42.05957 c 3.3258,-3.19825 7.13564,-3.2924 10.09618,-0.21911 2.88339,2.99232 2.64041,7.10433 -0.57986,10.20208 -2.69541,2.59178 -5.91617,3.13923 -8.40436,1.3986 l 2.50133,-3.55487 c 1.26968,0.94871 2.56609,0.87502 3.69659,-0.21173 1.3939,-1.34102 1.27772,-3.16972 -0.30402,-4.81171 -1.56898,-1.62835 -3.38049,-1.77354 -4.82652,-0.38313 -1.09194,1.04997 -1.21425,2.31607 -0.33918,3.61767 l -3.75241,2.25609 c -1.46317,-2.69998 -0.75602,-5.72734 1.91225,-8.29389 z m 36.92694,-52.12052 11.95759,5.85223 -1.88559,3.83998 -8.9254,-4.36763 -2.83549,5.77673 -3.0311,-1.48239 z m -50.96799,64.75452 8.63186,-7.25541 7.9212,9.78811 -8.53278,7.17411 -1.77423,-2.19274 5.32821,-4.47878 -1.28288,-1.58514 -5.08932,4.2777 -1.68449,-2.08172 5.08849,-4.27832 -1.40555,-1.73726 -5.42627,4.5622 z m 55.28513,-74.80697 12.15302,5.1489 -1.50889,3.78407 -9.07307,-3.8437 -2.27144,5.69232 -3.07909,-1.30454 z m 4.52139,-11.76464 12.17605,4.00386 -3.56135,10.50453 -2.72824,-0.89618 2.22494,-6.55994 -1.97197,-0.64858 -2.12379,6.26534 -2.59111,-0.85083 2.12463,-6.26469 -2.16013,-0.71081 -2.26534,6.68053 -2.72694,-0.8979 z m -77.05257,97.92879 3.62039,-2.40005 2.14822,1.65273 4.32485,-2.86823 -0.64445,-2.6493 3.61802,-2.40046 2.66408,13.72991 -4.33975,2.87736 z m 78.68216,-105.85588 9.2602,2.22056 1.12051,-4.08026 3.0745,0.73736 -3.35898,12.22353 -3.07449,-0.73736 1.122,-4.08051 -9.25938,-2.21993 z m -67.92455,104.98592 -2.77526,1.84104 2.14887,1.65187 c 0.53057,0.41203 1.38567,1.08897 1.9859,1.67294 l 0.0305,-0.0191 c -0.30829,-0.77799 -0.58166,-1.84185 -0.74402,-2.49765 z m -21.50288,6.48259 2.62285,-1.41598 1.03303,1.60983 c -0.0363,-1.39113 0.75719,-2.98315 2.97109,-4.17883 3.48604,-1.88147 6.8386,-0.68614 8.7695,2.80803 1.94832,3.52566 0.81608,7.34477 -3.1716,9.49734 -3.14135,1.69535 -6.10869,1.60072 -7.87884,-0.34688 l 3.36383,-2.69349 c 0.82324,0.86295 1.89396,1.1033 3.11932,0.44257 1.75903,-0.94965 2.02091,-2.72588 0.85435,-4.83499 -1.14766,-2.07781 -2.77543,-2.77333 -4.56585,-1.80668 -1.4765,0.79669 -2.02683,2.19819 -1.58658,3.10431 l 0.0774,0.14222 2.96817,-1.60293 1.28024,2.3141 -6.29809,3.39879 z m 93.00636,-129.18817 12.51957,2.25504 -0.73549,4.25242 -6.6618,2.9858 c -0.48869,0.20125 -1.22576,0.46727 -1.73812,0.59295 l -0.01,0.0531 7.54691,1.35931 -0.63427,3.67259 -12.5202,-2.2542 0.69953,-4.04332 6.75355,-3.20404 c 0.54804,-0.22738 1.24764,-0.48227 1.70066,-0.58181 l 0.009,-0.0538 -7.56461,-1.36214 z m -103.70214,134.73512 10.0412,-4.50479 5.23682,11.6118 -9.92865,4.45362 -1.17251,-2.59993 6.19928,-2.7802 -0.84893,-1.88078 -5.9201,2.65523 -1.11347,-2.46961 5.92074,-2.65607 -0.92918,-2.06009 -6.31332,2.83159 z m 104.67501,-140.34956 12.79852,1.1902 -0.56256,4.1892 -12.79853,-1.1902 z m -118.80689,144.69182 3.9469,-1.40499 6.29788,4.36109 c 0.48304,0.37069 1.06574,0.86073 1.38511,1.2113 l 0.0526,-0.018 -2.65607,-7.36322 3.58683,-1.27688 4.39488,12.18411 -4.15312,1.47881 -6.05609,-4.38933 -0.40337,-0.32195 c -0.35701,-0.29429 -0.74565,-0.63831 -1.01175,-0.91734 l -0.0508,0.0193 2.64814,7.34518 -3.58533,1.27667 z m 119.23503,-161.11251 12.86751,0.56242 -0.0965,4.10697 -9.60445,-0.41929 -0.14344,6.17924 -3.26221,-0.14249 z M 265.51659,385.95329 c 4.47158,-1.13685 7.88338,0.6449 9.02632,4.74292 1.1137,3.99213 -1.07104,7.42319 -5.40115,8.52423 -3.6221,0.92122 -6.73148,-0.18015 -8.09544,-2.89954 l 3.914,-1.84582 c 0.66685,1.43947 1.84713,2.00946 3.36824,1.6225 1.87296,-0.47584 2.64717,-2.11104 2.0364,-4.30145 -0.60737,-2.17322 -2.13792,-3.18283 -4.08129,-2.68952 -1.46857,0.37332 -2.18252,1.40578 -2.03329,2.95693 l -4.39748,0.11599 c 7.7e-4,-3.04718 2.07561,-5.314 5.66369,-6.22624 z m 124.8504,-190.57266 12.83451,-1.54206 0.9463,7.31676 c 0.47999,3.70293 -1.03673,5.46187 -3.44067,5.751 -1.53744,0.18489 -3.08278,-0.41873 -3.99217,-2.05215 l -3.66771,2.69769 12.34877,4.27453 0.14852,5.20594 -12.83509,5.92395 -0.12439,-4.34217 2.55365,-1.04137 -0.14791,-5.18904 -2.60549,-0.76285 -0.10093,-3.50692 -0.24567,0.18066 -0.57944,-4.47896 4.17623,-2.90379 -0.25219,-1.95147 -4.48302,0.5386 z m -138.69875,194.14742 4.07982,-0.81074 0.76458,4.26694 6.513,7.4125 -4.38478,0.87107 -3.11109,-3.98532 c -0.2794,-0.31445 -0.41795,-0.58214 -0.51936,-0.83938 l -0.0363,0.008 c -0.006,0.27789 -0.0435,0.58126 -0.19366,0.98087 l -1.57418,4.91605 -4.25866,0.84601 3.48434,-9.39944 z m 146.0192,-176.34843 0.0946,3.33021 2.55299,-1.04049 0.47477,-0.18861 c 0.60728,-0.23786 1.37379,-0.52329 2.00968,-0.70072 l -0.002,-0.036 c -0.82648,-0.1212 -1.87883,-0.41535 -2.52576,-0.60135 z m 0.28122,-14.52924 0.2894,2.23991 c 0.16776,1.30026 0.85695,1.80491 1.81608,1.69035 0.92203,-0.11179 1.41052,-0.73858 1.23864,-2.05663 l -0.2894,-2.23991 z m -9.27612,-12.57679 9.37678,-1.7678 -0.85086,-4.02088 3.11362,-0.58697 2.54866,12.04662 -3.11363,0.58697 -0.85024,-4.02171 -9.37763,1.76715 z m -4.71613,-16.7997 12.30909,-3.51469 1.16555,4.19533 -4.74668,5.67939 c -0.35639,0.40097 -0.90891,0.97094 -1.32026,1.31319 l 0.0154,0.0515 7.41867,-2.11919 1.00845,3.62439 -12.30889,3.51617 -1.10924,-3.98918 4.7365,-5.91866 c 0.39859,-0.4517 0.92174,-0.99322 1.29069,-1.28622 l -0.0146,-0.0509 -7.43775,2.12344 z m -3.67362,-10.97746 12.03485,-4.2237 3.99935,10.32722 -2.69554,0.94523 -2.49722,-6.44798 -1.94901,0.68412 2.38564,6.1583 -2.56121,0.89848 -2.38353,-6.15932 -2.13676,0.74953 2.5429,6.56751 -2.69468,0.94588 z m -169.86206,233.0662 c 4.60726,0.27406 7.19717,3.01284 6.84428,7.27435 -0.34621,4.15176 -3.60132,6.76334 -8.06254,6.49549 -3.73373,-0.22257 -6.27547,-2.2199 -6.61132,-5.22934 l 4.33039,-0.57277 c 0.12449,1.57653 1.038,2.47946 2.60403,2.57313 1.93084,0.11576 3.23031,-1.21042 3.41962,-3.48658 0.18758,-2.25971 -0.90108,-3.68956 -2.90322,-3.80985 -1.51256,-0.0903 -2.54683,0.67867 -2.94753,2.20519 l -4.18077,-1.22768 c 1.06588,-2.9084 3.80963,-4.44311 7.50706,-4.22194 z m -18.60813,-1.6926 10.8485,1.52722 -1.97119,12.63268 -10.72517,-1.51016 0.44118,-2.829 6.69601,0.94323 0.31986,-2.04587 -6.39575,-0.902 0.41953,-2.68558 6.39557,0.90053 0.35025,-2.2426 -6.81998,-0.95945 z M 379.45304,142.22912 c 3.6673,-1.66361 7.38323,-0.0816 9.22799,3.90457 1.54463,3.3343 1.03662,6.47747 -1.35147,8.19079 l -2.49157,-3.47549 c 1.27302,-0.85347 1.61262,-2.06977 0.96452,-3.46977 -0.79826,-1.72403 -2.5192,-2.22187 -4.53184,-1.30883 -1.99729,0.90496 -2.69992,2.52225 -1.87179,4.31201 0.62438,1.35069 1.7543,1.88125 3.23012,1.50674 l 0.90254,4.19692 c -2.95137,0.45189 -5.52149,-1.19667 -7.0494,-4.49872 -1.90637,-4.1151 -0.79441,-7.65059 2.9709,-9.35822 z m -201.78514,244.62103 4.06518,0.91125 2.87525,7.03822 c 0.19973,0.57066 0.41901,1.29385 0.49507,1.76185 l 0.0527,0.0113 1.80913,-7.63953 3.69419,0.82758 -2.99338,12.64408 -4.27852,-0.95853 -2.65751,-6.93494 c -0.17765,-0.50809 -0.40617,-1.27201 -0.50391,-1.79959 l -0.0529,-0.0128 -1.80533,7.62213 -3.69419,-0.82758 z m -14.90017,5.36182 4.00807,1.28997 2.80131,-9.19513 3.9889,1.28479 -2.80044,9.19578 4.00872,1.28913 -0.93016,3.05364 -12.00569,-3.86389 z m -32.05493,-26.63632 9.19665,5.54333 -0.10808,0.18446 3.6621,1.8305 -0.3345,2.74001 4.70017,2.34935 1.96738,-1.92379 3.28081,1.6411 -0.0262,-0.21592 4.11815,1.6037 0.48442,5.03435 1.79336,0.69702 1.69165,-4.186 3.78731,1.47397 -4.84295,11.98574 -6.72655,-2.61929 c -3.40415,-1.32498 -4.18424,-3.48493 -3.27775,-5.72974 0.57944,-1.43512 1.83981,-2.50761 3.67724,-2.53523 l -0.57854,-4.69437 -9.99621,8.87828 -4.71615,-2.35732 1.0136,-13.42289 -5.98663,10.21044 -3.67121,-2.21251 4.78993,-8.17074 -5.52518,-3.32932 z m 228.02737,-265.13294 2.82098,3.43795 -2.01424,4.71475 c -0.14349,0.4006 -0.31107,0.65654 -0.48774,0.87333 l 0.0228,0.028 c 0.24604,-0.13222 0.52761,-0.24977 0.94602,-0.314 l 5.02892,-1.03931 2.73912,3.33993 -9.83604,1.5688 -3.36258,2.78083 -2.62492,-3.20004 3.36172,-2.78148 z M 154.09175,387.46856 c -0.34763,0.86137 -0.0444,1.58433 1.16808,2.05729 l 2.05908,0.80184 1.15273,-2.85336 -2.05907,-0.80185 c -1.1957,-0.46567 -1.95857,-0.0986 -2.32082,0.79608 z M 345.31045,95.39897 c 3.00471,-2.883987 7.10931,-2.638083 10.18414,0.587712 2.57231,2.700418 3.101,5.925568 1.34891,8.414128 l -3.53544,-2.50793 c 0.9543,-1.26817 0.88818,-2.566336 -0.19156,-3.69919 -1.32991,-1.396086 -3.15629,-1.28224 -4.80482,0.299542 -1.63532,1.571358 -1.7902,3.384888 -0.4098,4.831248 1.04161,1.09461 2.30495,1.21801 3.6097,0.34296 l 2.2322,3.75766 c -2.70468,1.46239 -5.72242,0.7532 -8.27026,-1.91928 -3.17575,-3.33173 -3.24738,-7.145654 -0.16307,-10.10685 z m -202.54084,283.30627 -0.3345,2.74001 -0.10694,0.79328 c -0.0847,0.58862 -0.19563,1.26228 -0.32956,1.81419 l 0.0335,0.0157 c 0.51727,-0.66823 1.30051,-1.4525 1.78537,-1.93192 l 1.96826,-1.92313 z m 187.45394,-287.977258 8.58995,-9.656861 3.39753,2.985047 -0.8484,7.447048 c -0.0777,0.537804 -0.22854,1.326058 -0.3866,1.84083 l 0.0422,0.03715 5.17841,-5.821801 2.933,2.578713 -8.58907,9.657523 -3.22899,-2.837943 0.70043,-7.647006 c 0.0861,-0.603806 0.2276,-1.352221 0.37786,-1.801845 l -0.0431,-0.03782 -5.18936,5.836332 z m -207.58426,269.709068 3.24523,2.29128 -7.48444,10.54004 -3.24523,-2.29129 z m 205.31953,-288.031489 8.98902,6.996193 -1.74116,2.310601 -5.61227,-4.36987 -1.25997,1.672044 5.36136,4.172757 -1.65356,2.194344 -5.36071,-4.173611 -1.38044,1.831897 5.71717,4.448921 -1.74116,2.310601 -9.09199,-7.077809 z m -225.32369,288.637419 7.92757,-9.86047 3.29278,2.63871 -0.31275,7.53455 c -0.0542,0.59543 -0.15575,1.3362 -0.28087,1.78372 l 0.0435,0.0354 4.78824,-5.95799 2.99357,2.3975 -7.92694,9.85963 -3.46541,-2.77536 0.46639,-7.344 c 0.049,-0.53114 0.15881,-1.31158 0.28828,-1.82404 l -0.0433,-0.034 -4.77838,5.94311 z M 321.34693,67.955496 c 3.05751,1.952805 4.41892,4.635684 3.52955,7.168274 l -4.0661,-1.656539 c 0.37522,-1.157279 0.0699,-2.226716 -1.12213,-2.988004 -1.71372,-1.093409 -3.43967,-0.449561 -4.7711,1.629241 -1.31051,2.045741 -1.14178,3.835295 0.6005,4.947516 1.4374,0.917732 2.96675,0.715575 3.56889,-0.124264 l 0.0888,-0.139161 -2.88908,-1.844871 1.46117,-2.279342 6.1293,3.915017 -4.0624,6.340999 -2.55244,-1.63051 0.94549,-1.711984 c -1.23546,0.71786 -3.05498,0.801707 -5.21023,-0.57425 -3.3933,-2.166525 -3.95158,-5.734404 -1.74707,-9.175666 2.22392,-3.4741 6.21356,-4.355227 10.09681,-1.876456 z M 92.124767,351.93249 l 2.235267,-2.37882 3.10295,2.90299 6.730816,-7.1624 3.08857,2.88943 -6.72995,7.16307 3.10208,2.90233 -2.23461,2.37795 z M 294.78439,68.582713 l 10.92103,-9.251689 4.63712,2.463571 -1.59883,14.203951 -3.86677,-2.054177 0.43814,-2.757936 -4.62011,-2.453516 -2.04381,1.903972 z M 83.838944,342.75222 l 2.128658,-1.9861 4.626704,5.01509 1.540685,-1.43617 -4.419114,-4.7912 2.022327,-1.88543 4.419763,4.79034 1.68789,-1.5735 -4.711965,-5.10767 2.130151,-1.98631 7.494027,8.12558 -9.509713,8.86751 z M 302.8161,66.7644 l 2.96579,1.575311 0.43834,-2.7564 c 0.11179,-0.682958 0.30239,-1.789467 0.5348,-2.621623 l -0.0327,-0.01638 c -0.54297,0.664364 -1.35627,1.441004 -1.86086,1.914894 z m -219.184664,260.41067 2.539019,-1.99603 6.855841,8.26343 -10.010174,7.87163 -2.738235,-3.29938 7.472674,-5.87578 z M 285.79087,50.25361 l 10.10555,3.921881 -1.11713,2.720258 -6.31005,-2.44945 -0.80782,1.968577 6.02653,2.33824 -1.06042,2.584069 -6.02755,-2.340373 -0.88564,2.157151 6.42728,2.494083 -1.1173,2.718757 -10.22344,-3.965644 z m -209.089208,267.38278 2.725633,-1.89446 6.241116,8.72998 -10.752802,7.47119 -2.492432,-3.48518 8.026936,-5.57825 z M 277.79376,47.78479 c 3.52851,1.108145 5.54102,3.626256 5.22188,6.584166 l -4.26901,-0.4908 c 0.21386,-1.536877 -0.4684,-2.618772 -1.94888,-3.08437 -1.82505,-0.571358 -3.35266,0.382794 -4.01772,2.514909 -0.65995,2.11474 0.0795,3.743804 1.97366,4.338096 1.42872,0.447815 2.58252,-0.03851 3.29134,-1.402717 l 3.74429,2.175477 c -1.639,2.524472 -4.59395,3.334309 -8.0883,2.237311 -4.35617,-1.367018 -6.2565,-4.60583 -5.01157,-8.594643 1.21193,-3.885007 4.88541,-5.600704 9.10431,-4.277429 z M 66.470172,318.2438 l 11.21528,-7.08127 2.268086,3.59962 -11.21528,7.08127 z M 256.1269,42.061468 l 4.27313,0.927096 2.7001,6.896723 0.163,0.485288 c 0.13974,0.437114 0.28011,0.932343 0.3525,1.308298 l 0.0526,0.01131 1.74801,-7.613376 3.6901,0.800305 -2.89866,12.629525 -4.06205,-0.8812 -2.91577,-6.999966 c -0.20438,-0.567599 -0.42761,-1.288165 -0.50563,-1.753816 l -0.0541,-0.01109 -1.75095,7.631371 -3.6918,-0.801582 z M 61.744289,303.03141 l 2.695318,3.34744 c -0.862501,0.83032 -1.102723,1.90438 -0.440889,3.12525 0.94985,1.75367 2.725822,2.00475 4.835753,0.82472 2.079036,-1.16334 2.773655,-2.797 1.806706,-4.58354 -0.79707,-1.472 -2.199209,-2.0143 -3.106091,-1.56784 l -0.141586,0.0785 1.603203,2.96148 -2.314391,1.2951 -3.400643,-6.27986 6.440096,-3.60486 1.414945,2.61577 -1.608862,1.04465 c 1.391323,-0.0441 2.984996,0.73713 4.179543,2.94566 1.88427,3.47574 0.688132,6.83927 -2.806432,8.79591 -3.526934,1.97355 -7.346967,0.86699 -9.501068,-3.11185 -1.695566,-3.13235 -1.602181,-6.10376 0.344398,-7.88654 z m -7.882732,-9.84842 2.599685,-1.18865 2.785425,6.19503 1.880753,-0.85893 -2.660746,-5.91804 2.468546,-1.1283 2.660543,5.91656 2.06032,-0.93983 -2.836705,-6.31061 2.599048,-1.18781 4.512342,10.0365 -11.607946,5.30649 z M 243.09096,40.625949 l 10.71617,1.433955 -0.42519,2.826646 -6.69049,-0.895687 -0.30809,2.043666 6.39166,0.855382 -0.40411,2.684248 -6.38935,-0.854974 -0.3371,2.239937 6.81423,0.911782 -0.42372,2.826426 -10.84009,-1.451527 z M 48.414361,278.79459 l 12.177958,-4.4694 1.406196,3.94496 -4.357244,6.33247 -0.295742,0.37746 c -0.31005,0.38508 -0.650885,0.77582 -0.913297,1.01755 l 0.01766,0.0511 7.358913,-2.70149 1.277873,3.58632 -12.177958,4.4694 -1.48004,-4.15047 4.384547,-6.09182 c 0.331123,-0.43232 0.848701,-1.04817 1.237964,-1.42452 l -0.01831,-0.0503 -7.339999,2.69413 z M 234.50963,39.33758 c 3.60164,0.213124 6.07299,1.862887 6.50987,4.464435 l -4.3374,0.522329 c -0.22732,-1.173799 -1.00588,-1.944943 -2.40905,-2.027879 -2.01721,-0.119247 -3.2136,1.260901 -3.37878,3.680109 -0.16389,2.384088 0.83917,3.840362 2.89225,3.961244 1.69141,0.09964 2.92892,-0.805748 3.05258,-1.813978 l 0.0112,-0.162629 -3.40362,-0.201576 0.18176,-2.653999 7.21921,0.426219 -0.50444,7.387259 -3.00607,-0.178695 0.005,-1.921293 c -0.73368,1.207523 -2.27952,2.149241 -4.81886,2.000109 -3.99706,-0.237073 -6.19205,-3.032633 -5.9186,-7.041089 0.27666,-4.046134 3.33237,-6.711894 7.90525,-6.440566 z m -13.18898,-0.08535 4.22454,0.02281 -0.0332,13.149879 -4.22388,-0.02368 z m -172.815514,223.09816 1.845149,3.90924 c -1.437438,0.67438 -2.006422,1.86105 -1.620042,3.3795 0.475544,1.87401 2.108651,2.63997 4.296676,2.01595 2.171676,-0.61993 3.180206,-2.15737 2.687375,-4.10181 -0.372875,-1.4659 -1.405681,-2.17584 -2.955602,-2.0181 l -0.114328,-4.40225 c 3.041842,-0.0147 5.308071,2.04972 6.220424,5.63599 1.135255,4.46902 -0.643669,7.89553 -4.737748,9.06358 -3.988375,1.13699 -7.416564,-1.03086 -8.515932,-5.36076 -0.920573,-3.62116 0.179731,-6.73904 2.894028,-8.12134 z M 209.38159,39.24337 213.61961,39 l 0.36072,9.899973 6.37726,-0.365754 0.12242,3.362684 -10.61461,0.608238 z m -167.173987,211.75941 2.831915,-0.59859 1.141239,6.77287 2.047916,-0.43457 -1.089299,-6.46621 2.689423,-0.56947 1.089659,6.46921 2.244588,-0.47473 -1.162958,-6.89707 2.831915,-0.59859 1.848769,10.97224 -12.645641,2.67058 z M 197.16818,41.039736 l 4.11978,-0.442875 1.11194,9.570968 6.19882,-0.666534 0.37799,3.249621 -10.3186,1.10941 z m -12.61728,2.332318 10.85885,-1.760028 0.56842,2.834969 -6.78049,1.098681 0.41154,2.05145 6.47576,-1.050131 0.53963,2.692544 -6.47513,1.049293 0.45039,2.247375 6.90396,-1.119812 0.56843,2.834968 -10.98318,1.780505 z M 39.733498,234.1101 l 12.562921,-6.32719 0.306336,4.31255 -2.504991,1.12164 0.36589,5.15393 2.632212,0.66916 0.305683,4.31342 -13.301277,-4.07125 z m 2.823989,2.34414 0.0026,0.0373 c 0.83123,0.0922 1.892908,0.34856 2.546223,0.51194 l 2.632212,0.66915 -0.235168,-3.30747 -2.504338,1.12078 -0.73037,0.3172 c -0.544252,0.23042 -1.173669,0.48164 -1.711178,0.65109 z M 171.21831,46.653622 l 12.31846,-3.099098 0.82106,3.177541 -4.11204,1.033585 2.47213,9.567951 -4.09459,1.030402 -2.47127,-9.567294 -4.11269,1.034453 z M 43.04818,215.60792 l 0.769617,4.27797 c -1.150127,0.30376 -1.869127,1.12969 -1.870839,2.53187 -6.57e-4,2.01204 1.436162,3.11064 3.844244,3.11531 2.372353,0.003 3.757405,-1.09038 3.758787,-3.14026 7.17e-4,-1.68893 -0.968859,-2.85781 -1.974755,-2.91407 l -0.162385,-5.6e-4 -0.0025,3.39688 -2.641302,-0.004 0.0046,-7.2059 7.351331,0.0105 -0.0028,3.00208 -1.90495,0.12158 c 1.240211,0.6499 2.263383,2.1253 2.261252,4.65922 -0.0017,3.98939 -2.645121,6.35744 -6.635621,6.35197 -4.026229,-0.007 -6.846025,-2.8696 -6.84277,-7.43374 0.002,-3.5946 1.495679,-6.16173 4.04818,-6.76851 z m 114.97873,-164.418968 4.1639,-1.402423 5.9562,4.476293 c 0.42257,0.33714 1.0239,0.863783 1.38825,1.258625 l 0.0518,-0.01713 -2.50913,-7.365138 3.59579,-1.210378 4.16335,12.216264 -3.95706,1.332414 -6.19784,-4.452558 c -0.47406,-0.377274 -1.04763,-0.874975 -1.35984,-1.230536 l -0.0518,0.01713 2.51596,7.380973 -3.59558,1.211875 z M 40.533551,202.78449 l 2.852646,0.18425 -0.637404,6.87459 2.063116,0.1338 0.608863,-6.56695 2.708926,0.17483 -0.608863,6.56695 2.259359,0.14488 0.650458,-7.00155 2.851158,0.18448 -1.03175,11.13801 -12.736879,-0.82351 z M 151.83496,53.641397 l 3.86887,-1.659051 4.63699,11.988461 -3.86821,1.658174 z M 43.394965,187.45816 l 12.660965,1.77792 -0.730438,4.17631 -6.857389,3.57499 c -0.556503,0.25745 -1.263886,0.54781 -1.724486,0.66929 l -0.0095,0.0545 7.650344,1.07384 -0.665243,3.79523 -12.660965,-1.77792 0.769386,-4.39357 6.761764,-3.347 c 0.496652,-0.22857 1.245211,-0.53175 1.763988,-0.68337 l 0.01037,-0.0538 -7.633347,-1.07199 z m 91.863575,-126.230496 3.66281,-1.756776 4.54987,8.6004 5.51011,-2.64268 1.5443,2.920572 -9.1723,4.398628 z m -25.07255,15.978748 5.9695,-4.251836 c 3.0225,-2.15065 5.33024,-1.637359 6.78677,0.344271 0.93014,1.267245 1.17257,2.910945 0.18912,4.475061 l 4.85912,2.271567 -1.78095,-12.573949 4.46099,-2.773776 10.93583,8.281996 -3.72097,2.312297 -2.05573,-1.716893 -4.44554,2.762037 0.50979,2.678218 -3.72097,2.312297 -0.10509,-0.73685 -3.22305,2.296276 -4.64717,-2.321375 -1.59237,1.133172 2.71656,3.696879 -3.36072,2.392982 z m -59.592461,95.968758 -0.248626,4.28437 c -1.537092,-0.108 -2.574556,0.64566 -2.953688,2.15132 -0.466907,1.85536 0.56601,3.30948 2.719572,3.8247 2.135694,0.51109 3.711195,-0.33695 4.195873,-2.26289 0.365755,-1.45309 -0.182344,-2.56719 -1.574496,-3.17908 l 1.951924,-3.87652 c 2.595927,1.45635 3.56313,4.34308 2.669451,7.89612 -1.115872,4.42922 -4.223635,6.54308 -8.251603,5.57904 -3.924349,-0.93793 -5.831961,-4.47733 -4.752469,-8.76603 0.903304,-3.58844 3.291268,-5.76355 6.244062,-5.65103 z m 0.08906,-14.12281 6.738502,7.68477 4.238004,1.38338 -1.319179,4.05663 -4.238004,-1.38338 -9.969819,2.25263 1.416758,-4.35748 5.163568,-0.86209 c 0.42401,-0.096 0.736918,-0.092 1.019523,-0.0587 l 0.01211,-0.0361 c -0.248243,-0.13907 -0.502563,-0.32111 -0.788467,-0.64901 l -3.650106,-3.79689 z M 129.73431,68.358943 c 0.26935,0.788858 0.48715,1.863455 0.6158,2.527037 l 0.51045,2.67734 2.85385,-1.7733 -2.05506,-1.717771 -0.42998,-0.366539 c -0.47074,-0.406494 -1.03736,-0.91522 -1.46229,-1.367462 z m -29.73826,18.046555 9.67705,-8.129003 2.12042,2.510799 -3.22997,2.714132 6.38678,7.558423 -3.21691,2.702261 -6.38612,-7.559288 -3.23084,2.713475 z m -10.120959,10.548691 3.074191,-3.008288 7.260018,1.500402 c 0.52387,0.125184 1.2898,0.343785 1.78805,0.54389 l 0.0381,-0.03806 -5.477455,-5.536963 2.65412,-2.598539 9.087645,9.186575 -2.92296,2.85921 -7.463094,-1.378617 -0.459869,-0.115213 c -0.47256,-0.1249 -0.963002,-0.274868 -1.289619,-0.41401 l -0.03681,0.03639 5.490112,5.550424 -2.655609,2.59873 z m -6.094887,13.069991 -1.883847,3.99885 c -1.414987,-0.7295 -2.685519,-0.42843 -3.623617,0.85805 -1.155694,1.5861 -0.735519,3.39708 1.104018,4.76555 1.825632,1.35799 3.64373,1.1873 4.843117,-0.45858 0.905546,-1.24148 0.814015,-2.53212 -0.268337,-3.68315 l 3.337527,-2.91569 c 1.898743,2.45069 1.704365,5.60517 -0.506973,8.64277 -2.758592,3.78554 -6.515823,4.54427 -9.958083,1.98307 -3.354488,-2.49507 -3.800945,-6.65603 -1.130396,-10.32111 2.23493,-3.06891 5.33198,-4.17924 8.086591,-2.86976 z m -3.185056,-3.63737 7.390019,-8.518241 2.217574,1.929803 -4.614975,5.318198 1.603762,1.39608 4.407233,-5.08047 2.105358,1.83292 -4.407234,5.08047 1.756781,1.52918 4.699356,-5.41753 2.217574,1.9298 -7.475926,8.61779 z m 34.594072,-29.338602 1.85042,2.520408 1.82793,-1.302651 c 1.061,-0.755886 1.1606,-1.598131 0.58031,-2.387704 -0.55882,-0.7601 -1.35492,-0.897372 -2.43115,-0.130352 z"
         id="Word-Circle"
         fill="#FFFFFF"
         mask="url(#mask-2)"
         style="fill:#ffffff;fill-rule:evenodd;stroke:none;stroke-width:1"
         transform="translate(-113,-188)" />
      <path
         d="m 156.73212,258 c 21.91249,0 37.78976,-8.77309 43.08218,-23.82586 l -24.32657,-5.3562 c -1.85699,7.48021 -8.17076,11.54354 -18.01281,11.54354 -12.16329,0 -19.40555,-6.55673 -19.40555,-17.36148 0,-10.7124 7.33511,-17.45383 19.40555,-17.45383 9.7492,0 15.97012,4.06333 17.91996,11.63589 L 200,212.56464 C 195.54322,197.41952 179.20171,188 157.47492,188 131.3842,188 113,202.68338 113,223.36939 113,244.51715 130.08431,258 156.73212,258 Z M 232,256 v -65 h -23 v 65 z m 34.50403,0 5.10081,-12.35915 H 302.4879 L 307.58871,256 H 333 L 302.39516,191 H 271.60484 L 241,256 Z M 297,229 h -20 l 4.78469,-11.58696 c 1.14832,-2.82608 3.82775,-10.07971 5.07177,-14.41304 h 0.28708 c 1.14833,4.33333 3.92345,11.58696 5.07177,14.41304 z"
         id="TypeMarque-Acro"
         fill="#FFFFFF"
         fill-rule="nonzero"
         mask="url(#mask-2)"
         style="fill:#ffffff;stroke:none;stroke-width:1"
         transform="translate(-113,-188)" />
    </g>
  </g>
</svg>
